<svg width="200" height="46" viewBox="0 0 200 46" fill="none" xmlns="http://www.w3.org/2000/svg">
<path d="M30.0429 2.47159V40.5595C30.0429 41.5734 30.0429 42.4607 29.0158 42.9677C28.1813 43.4113 26.3838 43.6648 25.6135 43.6648C25.2925 43.6648 24.7148 43.6648 24.7148 44.1718C24.7148 44.6788 25.3567 44.6788 25.7419 44.6788C26.8974 44.6788 31.7761 44.552 33.7661 44.552C36.3339 44.552 38.9017 44.7422 41.4694 44.7422C42.1114 44.7422 42.6891 44.7422 43.3311 44.8055C43.8446 44.8689 44.4224 44.9957 45.0643 44.9957C45.1927 44.9957 45.6421 44.9957 45.6421 44.6154C45.6421 44.4887 45.5779 44.3619 45.5137 44.2985C45.2569 43.9817 44.8717 43.9183 44.4224 43.8549C43.9088 43.7915 43.4595 43.7282 42.9459 43.6648C42.2398 43.538 41.3411 43.2846 40.7633 42.8409C39.5436 41.8903 39.7362 39.799 39.7362 37.8977V6.71766C39.7362 5.26006 39.672 3.35883 40.5065 2.53497C41.0201 2.02797 41.8546 1.83785 42.9459 1.77448C43.6521 1.7111 44.3582 1.7111 45.1285 1.58436C45.3211 1.58436 45.6421 1.52098 45.6421 1.14074C45.6421 0.760491 45.1927 0.760491 45.0643 0.760491C43.2669 0.760491 41.8546 0.887238 39.672 0.887238H3.91585C3.65907 0.887238 3.46649 0.887238 3.01713 0.823865C2.43938 0.697118 1.92583 0.570368 1.34808 0.570368C0.577748 0.570368 0.256777 0.887238 0.192583 0.950615C0.128388 1.01399 0.128388 1.07736 0.128388 1.14074C0.128388 1.7111 0.641942 1.7111 0.962913 1.7111C2.1826 1.7111 4.23682 1.83785 4.94295 2.34484C5.58489 2.85184 5.58489 3.54896 5.58489 3.99257V39.5455C5.58489 41.5101 5.64909 42.3339 5.32812 42.7142C4.81456 43.2846 1.86163 43.6648 0.898719 43.6648C0.641942 43.6648 0.256777 43.6648 0.0641942 43.9183C0 43.9817 0 44.1084 0 44.1718C0 44.3619 0.128388 44.552 0.385165 44.6788C0.577748 44.7422 0.77033 44.7422 0.962913 44.7422C3.46649 44.7422 4.94295 44.6788 8.21686 44.552C10.9772 44.4253 12.0043 44.4253 12.5179 44.4253L17.846 44.6154C17.9744 44.6154 18.0386 44.6154 18.167 44.6154C18.8089 44.6154 19.3866 44.6788 20.0286 44.6788C20.157 44.6788 20.6063 44.6788 20.6063 44.2985C20.6063 43.7282 19.7076 43.6648 19.3866 43.6648C18.1028 43.6014 16.3695 43.538 15.7276 42.5874C15.2782 41.9537 15.2782 40.4961 15.2782 38.1512V2.47159H30.0429Z" fill="#A18039"/>
<path d="M68.3854 30.5463L71.4025 39.799C72.1086 41.8903 72.1728 42.1438 72.1728 42.4607C72.1728 43.4113 70.8889 43.3479 69.6693 43.3479H67.2299C66.3311 43.3479 66.1386 43.9183 66.1386 44.045C66.1386 44.6788 67.4225 44.6788 68.3854 44.6788C69.4125 44.6788 70.4396 44.6154 71.4667 44.552C72.4296 44.552 73.8419 44.4887 75.5751 44.4887C78.3997 44.4887 81.2242 44.6154 84.1129 44.6154C84.4981 44.6154 84.8833 44.6154 85.2684 44.6154C86.5523 44.6154 86.8733 44.7422 87.3868 44.7422C87.772 44.7422 88.3498 44.6154 88.3498 43.9817C88.3498 43.4113 87.9646 43.4113 87.7078 43.4113C87.1943 43.4113 86.7449 43.4747 86.2955 43.4747C85.8462 43.4747 84.2413 43.4113 83.4068 42.8409C82.8933 42.5241 82.3155 41.7636 81.4168 39.4187L67.5508 3.16871C67.0373 1.77448 66.5879 0.253497 66.2028 0.253497C65.946 0.253497 65.625 0.887238 65.4966 1.20411C65.3682 1.58436 65.1757 2.02797 65.0473 2.40822L51.1171 40.1792C50.8604 40.9397 50.4752 42.0171 49.6407 42.7142C48.8703 43.3479 47.779 43.4747 46.8161 43.538C46.431 43.538 46.11 43.6014 45.7248 43.6014C45.6606 43.6014 45.6606 43.6014 45.5964 43.6014C45.468 43.6014 45.2755 43.538 45.1471 43.538C44.9545 43.538 44.5693 43.538 44.5693 43.9817C44.5693 44.2985 44.8261 44.6788 45.4038 44.6788C46.1742 44.6788 45.7248 44.552 46.9445 44.6154C49.6407 44.6788 51.9517 44.6788 55.7391 44.6788H57.2156C57.6649 44.6788 58.0501 44.4887 58.0501 44.1084C58.0501 43.6014 57.6007 43.538 57.344 43.538L55.6749 43.4747C55.3539 43.4747 54.5836 43.4113 54.0059 43.2845C52.722 42.9677 52.5936 42.2706 52.5936 41.8903C52.5936 41.3833 52.8504 40.5595 52.9146 40.3693L56.4452 30.5463H68.3854ZM62.4795 14.0691L67.936 29.1521H56.9588L62.4795 14.0691Z" fill="#A18039"/>
<path d="M121.919 8.11189C121.919 6.65429 121.983 4.75306 122.111 3.42221C122.24 1.83785 122.368 1.64773 122.368 1.26749C122.368 0.887238 122.111 0.887238 122.047 0.887238C121.855 0.887238 121.662 1.07736 121.084 1.77448C120.571 2.28147 119.736 2.97859 118.645 2.97859C117.425 2.97859 116.398 2.28147 115.756 1.90123C112.996 0.316871 110.749 0 108.502 0C100.157 0 95.0214 3.99257 92.1327 7.47815C88.7304 11.5341 86.7404 17.0476 86.7404 22.688C86.7404 27.8213 88.4094 34.4122 93.545 39.292C97.3324 42.9043 102.917 45.5026 108.502 45.5026C113.83 45.5026 117.04 43.0944 118.709 41.4467C120.314 42.0171 121.02 43.2845 121.726 44.4253C121.919 44.6788 122.111 45.059 122.368 45.059C122.753 45.059 122.753 44.4887 122.753 44.2985C122.753 43.4113 122.625 42.4607 122.625 41.5734C122.625 41.5101 122.625 41.4467 122.625 41.3833V40.1158C122.625 39.6722 122.625 37.1373 122.946 34.0953C123.138 32.3208 123.267 31.6237 123.267 30.7998C123.267 30.0394 122.882 29.9126 122.753 29.9126C122.176 29.9126 121.983 30.6097 121.855 31.0533C121.726 31.7505 121.598 32.4476 121.084 34.0953C120.827 34.9192 120.571 35.743 120.186 36.5035C119.929 37.0739 118.837 39.3554 116.591 41.2566C114.729 42.8409 112.611 43.7915 109.85 43.7915C107.475 43.7915 105.036 43.0944 103.046 40.8763C99.7076 37.264 98.167 30.2928 98.167 23.5118C98.167 20.9768 98.3595 18.4419 98.7447 15.9703C99.6434 10.2666 101.184 7.09791 102.532 5.19668C103.495 3.80245 105.678 1.45761 109.786 1.45761C113.124 1.45761 115.307 3.10534 116.847 4.81644C118.773 7.03453 119.608 9.316 120.186 11.851C120.314 12.5481 120.442 13.2452 120.571 13.9423C120.635 14.3226 120.763 15.3365 121.405 15.3365C121.919 15.3365 121.983 14.7028 121.983 14.0691C121.983 13.1818 121.919 12.1678 121.919 11.0905V8.11189Z" fill="#A18039"/>
<path d="M148.992 2.28147C149.763 2.2181 150.469 2.15472 151.688 2.15472C153.357 2.15472 156.567 2.15472 158.621 3.9292C160.162 5.26006 160.868 7.41478 162.024 11.6608C162.152 12.0411 162.345 13.0551 163.051 13.0551C163.5 13.0551 163.564 12.6115 163.436 11.344L162.922 7.28803C162.601 4.81644 162.473 2.85184 162.409 0.697118C161.767 0.760491 161.253 0.823865 160.547 0.823865C157.851 0.887238 147.773 0.950615 145.012 0.950615C128.322 0.950615 144.691 0.760491 126.396 0.760491C126.332 2.78846 126.203 3.73908 125.69 10.1399C125.626 10.6469 125.626 11.1539 125.561 11.6608C125.497 12.0411 125.497 12.4213 125.497 12.865C125.497 13.1185 125.497 13.3086 125.754 13.4353C125.882 13.4987 125.946 13.4987 126.075 13.4987C126.717 13.4987 126.845 12.9283 126.974 12.4213C127.808 8.74563 128.257 6.46416 129.349 5.00656C131.082 2.66171 134.163 2.2181 137.63 2.2181C138.208 2.2181 138.85 2.2181 139.427 2.28147V38.0245C139.427 41.3833 139.299 41.8903 139.299 41.9537C139.106 42.7142 138.529 43.0944 138.015 43.2845C137.18 43.6014 136.41 43.6014 135.511 43.6014H133.714C133.393 43.6014 133.136 43.6648 133.136 44.1718C133.136 44.4253 133.265 44.6788 134.035 44.6788C136.41 44.6788 138.721 44.6154 141.096 44.552C142.123 44.552 143.215 44.4887 144.242 44.4887C150.79 44.4887 152.202 44.8055 153.807 44.8055C154.898 44.8055 155.155 44.6154 155.155 44.1084C155.155 43.8549 155.091 43.7915 154.898 43.7282C154.77 43.6648 154.641 43.6014 154.449 43.6014L152.074 43.3479C151.432 43.2845 150.918 43.2845 150.34 43.0944C150.019 42.9677 149.698 42.8409 149.506 42.5874C148.992 41.9537 148.992 40.4961 148.992 38.0879V2.28147Z" fill="#A18039"/>
<path d="M180.036 30.5463L183.053 39.799C183.759 41.8903 183.823 42.1438 183.823 42.4607C183.823 43.4113 182.539 43.3479 181.319 43.3479H178.88C177.981 43.3479 177.789 43.9183 177.789 44.045C177.789 44.6788 179.073 44.6788 180.036 44.6788C181.063 44.6788 182.09 44.6154 183.117 44.552C184.08 44.552 185.492 44.4887 187.225 44.4887C190.05 44.4887 192.874 44.6154 195.763 44.6154C196.148 44.6154 196.534 44.6154 196.919 44.6154C198.203 44.6154 198.524 44.7422 199.037 44.7422C199.422 44.7422 200 44.6154 200 43.9817C200 43.4113 199.615 43.4113 199.358 43.4113C198.844 43.4113 198.395 43.4747 197.946 43.4747C197.496 43.4747 195.892 43.4113 195.057 42.8409C194.543 42.5241 193.966 41.7636 193.067 39.4187L179.201 3.16871C178.688 1.77448 178.238 0.253497 177.853 0.253497C177.596 0.253497 177.275 0.887238 177.147 1.20411C177.018 1.58436 176.826 2.02797 176.698 2.40822L162.767 40.1792C162.511 40.9397 162.125 42.0171 161.291 42.7142C160.521 43.3479 159.429 43.4747 158.466 43.538C158.081 43.538 157.76 43.6014 157.375 43.6014C157.311 43.6014 157.311 43.6014 157.247 43.6014C157.118 43.6014 156.926 43.538 156.797 43.538C156.605 43.538 156.22 43.538 156.22 43.9817C156.22 44.2985 156.476 44.6788 157.054 44.6788C157.824 44.6788 157.375 44.552 158.595 44.6154C161.291 44.6788 163.602 44.6788 167.389 44.6788H168.866C169.315 44.6788 169.7 44.4887 169.7 44.1084C169.7 43.6014 169.251 43.538 168.994 43.538L167.325 43.4747C167.004 43.4747 166.234 43.4113 165.656 43.2845C164.372 42.9677 164.244 42.2706 164.244 41.8903C164.244 41.3833 164.501 40.5595 164.565 40.3693L168.095 30.5463H180.036ZM174.13 14.0691L179.586 29.1521H168.609L174.13 14.0691Z" fill="#A18039"/>
</svg>
