<svg width="279" height="86" viewBox="0 0 279 86" fill="none" xmlns="http://www.w3.org/2000/svg">
<path d="M100.02 63.2231C100.02 63.067 100.046 62.8067 100.384 62.8067H102.859C103.614 62.8067 104.76 62.8588 105.515 63.4574C106.218 64.0039 106.583 65.1231 106.896 66.2422C107.052 66.7627 107.078 66.8929 107.338 66.8929C107.469 66.8929 107.599 66.8148 107.599 66.6326V66.5805L107.417 64.9409C107.312 64.0299 107.234 63.2752 107.182 62.13C106.583 62.2081 106.244 62.2081 105.932 62.2081H94.8104C94.5499 62.2081 94.055 62.2341 94.055 62.4684C94.055 62.5204 94.1071 62.6766 94.4978 62.7026H94.9927C95.1489 62.7026 95.2792 62.7026 95.4875 62.7286C95.6699 62.7546 95.9043 62.7807 96.0085 62.9368C96.1126 63.0409 96.1126 63.2231 96.1126 63.4574V78.3185C96.1126 79.0212 96.0866 79.3595 95.9564 79.5417C95.774 79.7759 95.3052 79.828 95.1229 79.828C94.5499 79.8801 94.3155 79.854 94.1332 79.9061C94.055 79.9321 94.0029 79.9581 94.0029 80.0883C94.0029 80.2965 94.2113 80.3225 94.4718 80.3225C94.8364 80.3225 95.3313 80.3225 95.8261 80.2965C99.6028 80.1924 101.686 80.2965 103.275 80.1663C104.421 80.0622 106.531 79.7239 107.677 78.1103C108.25 77.3034 108.589 76.0802 108.589 75.1172C108.589 73.6077 107.885 72.1762 107 71.3434C105.359 69.8078 102.754 69.7558 101.582 69.7558C100.957 69.7558 100.384 69.7818 100.02 69.8078V63.2231ZM100.02 70.3283C100.254 70.3023 100.488 70.2763 100.723 70.2763C101.686 70.2763 102.624 70.5626 103.249 71.1612C104.135 71.994 104.473 73.5296 104.473 74.935C104.473 76.2103 104.239 77.7199 103.64 78.5267C103.171 79.1513 102.259 79.7759 100.931 79.7759C100.28 79.7759 100.02 79.5417 100.02 79.2814V70.3283Z" fill="#A18039"/>
<path d="M120.46 62.9108V78.839C120.46 79.5677 120.303 79.6979 119.887 79.7759C119.626 79.828 119.392 79.828 119.131 79.828C118.949 79.828 118.741 79.854 118.558 79.8801C118.454 79.9061 118.272 79.9321 118.272 80.0883C118.272 80.2965 118.532 80.2965 118.636 80.2965C120.173 80.2965 119.131 80.2444 122.309 80.2444C123.247 80.2444 124.21 80.2444 125.122 80.2705C125.591 80.2705 126.059 80.2965 126.554 80.2965C126.971 80.2965 127.023 80.1403 127.023 80.0362C127.023 79.9581 126.997 79.828 126.711 79.828C125.33 79.854 124.94 79.802 124.731 79.6979C124.314 79.4897 124.367 79.1513 124.367 78.865V63.8217C124.367 63.5875 124.367 63.4313 124.367 63.3012C124.393 62.8848 124.419 62.8067 124.419 62.6245C124.419 62.2862 124.262 62.104 123.872 62.104C123.611 62.104 123.559 62.1821 123.064 62.2341C122.856 62.2601 122.726 62.2601 122.647 62.2601H119.314C119.131 62.2601 118.923 62.2601 118.324 62.2341C116.501 62.13 116.709 62.156 115.902 62.156C115.667 62.156 115.433 62.13 115.433 62.4684C115.433 62.7546 115.693 62.7546 115.902 62.7546C116.891 62.7546 116.683 62.7026 117.542 62.7026C117.959 62.7026 118.506 62.7026 118.506 63.4834C118.506 63.6135 118.48 63.7697 118.454 64.082C118.298 66.008 117.23 70.1722 116.735 71.8639C116.214 73.6077 115.042 77.0171 113.636 78.5787C113.193 79.0993 112.464 79.6718 111.969 79.6718C111.708 79.6718 111.682 79.5157 111.682 79.4376C111.682 79.2554 111.943 79.1773 112.151 78.9171C112.385 78.6308 112.411 78.3185 112.411 78.0842C112.411 77.2514 111.864 76.4966 110.823 76.4966C110.015 76.4966 109.546 76.9391 109.364 77.1473C109.052 77.4856 108.869 77.9281 108.869 78.5267C108.869 79.5417 109.468 80.0362 109.859 80.2444C110.224 80.4526 110.745 80.5567 111.187 80.5567C112.307 80.5567 113.141 80.0102 113.636 79.5677C114.547 78.7609 115.407 77.4596 116.344 75.1432C117.256 72.905 117.829 70.7448 118.35 68.4805C118.819 66.3983 119.209 64.3423 119.444 62.9108H120.46Z" fill="#A18039"/>
<path d="M128.758 62.3122C128.68 62.3122 128.628 62.3122 128.498 62.3122C128.263 62.2862 127.977 62.1821 127.716 62.1821C127.56 62.1821 127.222 62.2341 127.222 62.4163C127.222 62.6505 127.43 62.6505 127.56 62.6505C127.795 62.6505 127.977 62.6505 128.185 62.6766C128.68 62.7286 128.993 62.7807 129.175 62.9108C129.253 62.9629 129.305 63.0409 129.357 63.119C129.435 63.2752 129.435 63.4834 129.435 63.5875V78.1883C129.435 78.9952 129.462 79.3335 129.331 79.4897C129.253 79.5677 129.123 79.6198 129.019 79.6458C128.576 79.7759 127.925 79.8801 127.534 79.8801C127.404 79.8801 127.169 79.8801 127.169 80.0883C127.169 80.3225 127.456 80.3225 127.56 80.3225C128.185 80.3225 128.706 80.2965 129.618 80.2705C130.712 80.2444 131.311 80.2184 132.014 80.1924C132.092 80.1924 132.17 80.1924 132.248 80.1924L134.28 80.2705C134.332 80.2705 134.358 80.2705 134.41 80.2705C134.671 80.2705 134.905 80.2965 135.166 80.2965C135.218 80.2965 135.4 80.2965 135.4 80.1403C135.4 79.9061 135.035 79.8801 134.905 79.8801C134.384 79.854 133.681 79.828 133.42 79.4376C133.238 79.1773 133.238 78.5787 133.238 77.6158V70.979H136.207C136.155 73.5556 137.015 76.2103 138.421 77.902C139.776 79.5417 141.885 80.5828 143.839 80.5828C145.349 80.5828 147.511 80.0102 149.282 77.876C150.585 76.2884 151.548 73.9981 151.548 71.2132C151.548 68.2462 150.481 65.8258 148.892 64.1861C147.251 62.4944 145.402 61.9999 143.969 61.9999C142.068 61.9999 139.984 62.7807 138.421 64.6286C137.484 65.7477 136.39 67.6736 136.233 70.3544H133.238V64.2121C133.238 63.7697 133.264 63.2752 133.499 63.0409C133.655 62.8848 133.941 62.8067 134.228 62.8067L135.166 62.7807C135.296 62.7807 135.426 62.7286 135.426 62.5204C135.426 62.2601 135.113 62.2601 134.905 62.2601C134.358 62.2601 133.004 62.3382 132.327 62.3382L128.758 62.3122ZM143.943 62.4423C145.271 62.4423 145.896 63.5094 146.157 64.108C147.042 66.1121 147.277 69.5215 147.277 71.4475C147.277 73.2173 147.042 76.7309 146.287 78.5267C145.688 79.9581 144.907 80.1663 144.125 80.1663C143.292 80.1663 142.693 79.9061 142.068 78.9691C140.479 76.6007 140.349 72.2543 140.349 70.7187C140.349 66.8668 141.104 65.0189 141.469 64.2902C142.198 62.8067 143.24 62.4423 143.943 62.4423Z" fill="#A18039"/>
<path d="M160.241 62.2601C160.059 62.2601 159.902 62.2601 159.486 62.2341C157.636 62.13 157.845 62.156 157.089 62.156C156.881 62.156 156.516 62.13 156.516 62.4423C156.516 62.7286 156.881 62.7546 157.116 62.7546C157.949 62.7546 157.298 62.7026 158.522 62.7026C159.434 62.7026 159.59 62.8588 159.59 63.119C159.59 63.2491 159.564 63.3793 159.512 63.4834L152.844 79.0993C152.662 79.5157 151.88 79.5417 151.49 79.5417H149.718C150.135 80.6609 150.734 82.1964 151.229 83.6279C151.438 84.2525 151.75 85.5278 152.141 85.5278C152.662 85.5278 152.61 84.0183 152.61 83.4717C152.636 80.843 152.688 80.5828 152.792 80.4526C152.896 80.3485 153.157 80.2705 154.589 80.2705H161.804C163.627 80.2705 164.33 80.2444 164.539 80.4787C164.669 80.6348 164.695 81.0773 164.773 83.3676C164.799 83.9922 164.773 85.4497 165.242 85.4497C165.424 85.4497 165.58 85.1634 166.049 83.758C166.414 82.7169 167.456 79.802 167.534 79.5417H166.232C165.164 79.5417 165.164 79.3595 165.164 79.0472L165.138 63.4834C165.138 63.3533 165.138 63.2231 165.138 63.093C165.164 62.7286 165.19 62.7026 165.19 62.5464C165.19 62.1821 164.877 62.104 164.721 62.104C164.539 62.104 164.434 62.1821 164.122 62.2341C163.913 62.2601 163.809 62.2601 163.679 62.2601H160.241ZM161.205 62.9108V79.6198H153.443L160.606 62.9108H161.205Z" fill="#A18039"/>
<path d="M176.712 74.4926L177.936 78.2924C178.223 79.1513 178.249 79.2554 178.249 79.3856C178.249 79.7759 177.728 79.7499 177.233 79.7499H176.243C175.879 79.7499 175.801 79.9842 175.801 80.0362C175.801 80.2965 176.321 80.2965 176.712 80.2965C177.129 80.2965 177.546 80.2705 177.962 80.2444C178.353 80.2444 178.926 80.2184 179.629 80.2184C180.775 80.2184 181.921 80.2705 183.093 80.2705C183.25 80.2705 183.406 80.2705 183.562 80.2705C184.083 80.2705 184.213 80.3225 184.422 80.3225C184.578 80.3225 184.812 80.2705 184.812 80.0102C184.812 79.7759 184.656 79.7759 184.552 79.7759C184.344 79.7759 184.161 79.802 183.979 79.802C183.797 79.802 183.146 79.7759 182.807 79.5417C182.599 79.4116 182.364 79.0993 181.999 78.1363L176.374 63.2491C176.165 62.6766 175.983 62.0519 175.827 62.0519C175.722 62.0519 175.592 62.3122 175.54 62.4423C175.488 62.5985 175.41 62.7807 175.358 62.9368L169.706 78.4486C169.602 78.7609 169.445 79.2034 169.107 79.4897C168.794 79.7499 168.351 79.802 167.961 79.828C167.804 79.828 167.674 79.854 167.518 79.854C167.492 79.854 167.492 79.854 167.466 79.854C167.414 79.854 167.336 79.828 167.284 79.828C167.205 79.828 167.049 79.828 167.049 80.0102C167.049 80.1403 167.153 80.2965 167.388 80.2965C167.7 80.2965 167.518 80.2444 168.013 80.2705C169.107 80.2965 170.044 80.2965 171.581 80.2965H172.18C172.363 80.2965 172.519 80.2184 172.519 80.0622C172.519 79.854 172.336 79.828 172.232 79.828L171.555 79.802C171.425 79.802 171.112 79.7759 170.878 79.7239C170.357 79.5938 170.305 79.3075 170.305 79.1513C170.305 78.9431 170.409 78.6048 170.435 78.5267L171.868 74.4926H176.712ZM174.316 67.7257L176.53 73.92H172.076L174.316 67.7257Z" fill="#A18039"/>
<path d="M19.444 43.8063C17.2185 43.8063 16.5826 43.3612 16.3282 43.1069C16.2011 42.9797 15.6924 42.4074 15.6924 40.0547V2.28381H18.4266C22.8777 2.28381 26.5022 2.41098 28.4734 3.55555C30.7626 4.95447 31.9707 8.3246 33.1153 11.7583C33.4332 12.7757 33.5604 13.4116 34.1327 13.4116C34.5142 13.4116 34.8322 13.1572 34.7686 12.5849L34.3235 8.13384C34.1963 6.86209 34.0691 5.52676 34.0055 4.25501C33.9419 2.98326 33.8148 1.64793 33.7512 0.376184C32.9881 0.503361 32.4794 0.503361 31.78 0.566947C31.2077 0.566947 30.6354 0.630534 30.0631 0.630534C27.3288 0.694124 24.531 0.694124 20.9701 0.694124H9.33364C8.63418 0.694124 8.37983 0.694124 6.34504 0.566947C4.50101 0.503361 4.11948 0.503361 3.61078 0.503361H2.40263C1.95751 0.503361 1.13088 0.439775 1.13088 1.20282C1.13088 1.77511 2.08469 1.64793 2.97491 1.71152C4.56459 1.77511 5.20047 2.02946 5.58199 2.34739C5.83634 2.60174 6.09069 2.98326 6.09069 3.36479V40.5634C6.09069 41.2628 6.15428 41.8987 5.89993 42.4074C5.45482 43.2976 3.86513 43.6791 2.72056 43.7427L1.32164 43.8063C0.940118 43.8063 0.558594 43.8699 0.558594 44.315C0.558594 44.4422 0.622181 44.5694 0.685768 44.6965C0.87653 44.9509 1.13088 44.9509 1.32164 44.9509C1.63958 44.9509 1.89393 44.8873 2.21186 44.8873C3.16567 44.7601 4.75536 44.6965 8.57059 44.6965C10.8597 44.6965 13.1489 44.6965 15.5016 44.7601C16.3282 44.7601 17.4092 44.8873 20.9065 44.8873C21.2245 44.8873 21.5424 44.8873 21.7332 44.6965C21.7968 44.5694 21.8603 44.4422 21.8603 44.315C21.8603 43.8063 21.0337 43.8063 20.7794 43.8063H19.444Z" fill="#A18039"/>
<path d="M55.2392 0.185425C51.106 0.185425 45.3196 1.39358 40.4234 6.60774C39.0244 8.13384 37.8163 9.85069 36.8625 11.6947C35.1456 15.1284 34.319 19.0073 34.319 22.8225C34.319 28.7361 36.4174 34.6497 40.4234 39.0373C44.1114 43.1069 49.3256 45.5868 54.9213 45.5868C58.2278 45.5868 61.5343 44.6965 64.3958 43.1069C66.3034 42.0259 68.0202 40.6269 69.4828 38.9737C72.9165 35.1584 75.3964 29.4992 75.3964 22.8861C75.3964 19.4524 74.8241 16.0187 73.4888 12.9029C72.3442 10.1686 70.6273 7.56155 68.4654 5.52676C64.1414 1.39358 59.118 0.185425 55.2392 0.185425ZM55.1756 1.26641C56.9561 1.26641 58.5457 2.02946 59.6267 3.04685C60.2626 3.68273 60.7713 4.50936 61.2164 5.33599C63.3148 9.46917 64.205 16.9725 64.205 23.2676C64.205 27.5915 63.7599 32.5514 62.8697 36.4302C62.5517 37.8291 62.1066 39.1644 61.5343 40.4998C60.0718 43.8063 58.1006 44.5694 55.6843 44.5694C54.1582 44.5694 52.8865 44.315 51.6783 43.3612C51.0424 42.8525 50.5337 42.2802 50.0886 41.6443C45.8283 35.6671 45.5103 25.4932 45.5103 21.4872C45.5103 13.9839 46.7821 8.89689 48.499 5.78111C50.4702 2.09304 53.3952 1.26641 55.1756 1.26641Z" fill="#A18039"/>
<path d="M92.7532 22.6317C93.8342 22.8225 95.6782 23.1404 97.713 23.1404C101.274 23.1404 105.153 22.2502 107.887 20.2154C110.685 18.117 112.465 14.8105 112.465 10.9953C112.465 7.56155 110.876 4.70012 107.823 2.85609C105.661 1.58435 102.8 0.821297 97.4587 0.821297L79.2091 0.884884H78.8276C78.3189 0.884884 77.9374 0.94847 77.9374 1.39358C77.9374 1.96587 78.7004 1.96587 79.082 1.96587H80.2265C82.0706 1.96587 82.6428 2.34739 82.8972 2.7925C83.0244 3.04685 83.2151 3.61914 83.2151 5.90828V40.3726C83.2151 41.9623 83.088 42.7889 82.77 43.1704C82.1977 43.8699 79.7178 43.8699 78.8276 43.8699C78.6368 43.8699 77.8738 43.8699 77.8738 44.4422C77.8738 44.5694 77.9374 44.6965 78.001 44.7601C78.1281 44.9509 78.3825 44.9509 78.6368 44.9509C78.9548 44.9509 79.2091 44.8873 79.4635 44.8873H79.5271L94.1521 44.8237C94.7244 44.8237 95.2331 44.8873 95.8054 44.8873C96.3777 44.9509 96.95 44.9509 97.5859 44.9509C98.4761 44.9509 98.4761 44.5058 98.4761 44.3786C98.4761 44.1878 98.2853 43.8063 97.3951 43.8063H96.1869C95.6782 43.8063 93.7706 43.7427 93.1983 43.0433C92.8168 42.5346 92.7532 41.7715 92.7532 40.8177V22.6317ZM92.7532 5.08165C92.7532 4.3186 92.8168 3.36479 93.707 2.60174C94.025 2.34739 94.3429 2.22022 94.7244 2.09304C95.106 1.96587 95.5511 1.96587 95.9962 1.96587C97.5859 1.96587 98.8576 2.22022 99.9386 3.17403C102.037 5.01806 102.228 8.51536 102.228 11.3768C102.228 14.3654 102.037 18.0535 99.3027 20.279C97.8402 21.4236 96.1869 21.7415 93.5799 21.7415H92.7532V5.08165Z" fill="#A18039"/>
<path d="M147.13 5.33599C147.13 3.8099 147.194 3.04685 147.512 2.60174C147.83 2.15663 148.72 1.90228 150.691 1.90228H151.772C152.535 1.90228 152.535 1.45717 152.535 1.33C152.535 0.694124 151.709 0.694124 151.327 0.694124C146.558 0.694124 146.812 0.94847 143.76 0.94847C139.881 0.94847 139.118 0.757711 131.933 0.757711C129.262 0.757711 125.511 0.757711 121.886 2.66533C118.262 4.57295 116.545 7.43438 116.545 11.6947C116.545 15.8915 118.389 18.1806 119.661 19.3252C122.84 22.0595 128.308 22.2502 129.898 22.1866C130.534 22.123 130.916 22.3138 130.916 22.441C130.916 22.5046 130.598 22.5682 129.962 22.8225C128.563 23.3312 127.291 23.7763 125.511 25.0481C123.539 26.447 122.268 27.8459 121.187 29.7535C119.915 31.9155 118.77 34.9041 116.227 41.7079C115.973 42.3438 115.718 42.9797 115.209 43.3612C114.574 43.8063 113.429 43.8699 112.03 43.8063C111.14 43.8063 110.886 44.0607 110.886 44.315C110.886 44.4422 110.886 44.9509 112.03 44.9509C113.874 44.9509 119.533 44.8237 121.823 44.8237C123.285 44.8237 124.493 44.8873 125.574 44.9509C125.765 43.4884 125.956 41.9623 126.21 40.4998C126.782 36.9389 127.673 33.5052 128.563 30.2622C129.072 28.4818 129.835 25.8747 131.551 24.285C132.823 23.1404 134.095 22.9497 135.239 22.9497H137.592V41.1356C137.592 42.0259 137.592 42.4074 137.529 42.6617C137.211 43.6156 135.303 43.6791 132.696 43.8063C131.933 43.8699 131.806 44.1878 131.806 44.3786C131.806 44.5058 131.933 44.8873 132.887 44.8873C134.985 44.8873 133.078 44.8237 137.592 44.8237H145.096C146.304 44.8237 148.72 44.8873 151.2 44.8873C152.154 44.8873 152.472 44.5694 152.472 44.315C152.472 43.8063 151.836 43.8063 151.581 43.8063C150.31 43.8063 147.766 43.6156 147.321 42.9797C147.067 42.5982 147.13 41.8987 147.13 41.0085V5.33599ZM137.592 21.4236H135.239C133.078 21.4236 130.407 20.7877 128.881 19.3888C127.736 18.3714 126.528 16.273 126.528 12.0762C126.528 10.6137 126.655 6.09904 128.944 3.8099C130.598 2.15663 132.887 1.96587 134.349 1.96587C137.147 1.96587 137.592 3.3012 137.592 4.12784V21.4236Z" fill="#A18039"/>
<path d="M179.781 41.2628C179.781 42.6617 179.591 43.0433 179.463 43.234C179.082 43.6791 178.065 43.6156 177.492 43.6791C175.457 43.8063 174.504 43.8699 174.504 44.3786C174.504 44.8873 175.076 44.8873 175.648 44.8873C177.047 44.9509 177.556 44.7601 179.972 44.7601L193.643 44.8237C194.724 44.8237 194.852 44.5058 194.852 44.2514C194.852 43.8063 194.152 43.7427 193.834 43.7427C191.99 43.6791 190.146 43.8063 189.637 43.0433C189.383 42.7253 189.319 42.0259 189.319 40.1818V4.63654C189.319 3.87349 189.319 2.85609 189.701 2.41098C190.083 1.96587 191.227 1.96587 191.863 1.96587C193.771 1.90228 194.915 2.02946 194.915 1.26641C194.915 1.01206 194.788 0.757711 193.961 0.757711C193.135 0.757711 193.325 0.821297 192.054 0.884884C189.765 0.94847 182.77 0.94847 180.481 0.94847C179.4 0.94847 178.255 0.94847 177.174 0.884884C176.793 0.884884 176.475 0.821297 176.093 0.821297C175.585 0.821297 174.949 0.884884 174.949 1.45717C174.949 2.02946 175.775 2.02946 176.475 2.02946H177.81C178.51 2.02946 179.146 2.22022 179.4 2.53815C179.527 2.72891 179.781 3.23761 179.781 4.8273V21.4872C178.319 21.9959 176.093 22.5046 174.758 22.5046C173.168 22.5046 171.07 21.9323 169.798 20.8513C167.954 19.3252 167.763 17.1632 167.763 15.3192V4.70012C167.763 3.11044 168.018 2.60174 168.145 2.41098C168.399 2.09304 169.035 1.90228 169.735 1.90228H171.006C171.706 1.90228 172.532 1.90228 172.532 1.33C172.532 0.757711 171.897 0.694124 171.324 0.694124C170.116 0.694124 170.688 0.821297 166.937 0.821297C162.231 0.821297 157.399 0.821297 155.682 0.757711C154.283 0.694124 155.11 0.630534 153.838 0.630534C153.011 0.630534 152.884 0.884884 152.884 1.13923C152.884 1.83869 153.901 1.77511 155.491 1.83869C156.381 1.83869 157.462 1.77511 157.844 2.28381C158.225 2.72891 158.225 3.74631 158.225 4.50936V14.0475C158.225 16.4638 159.179 19.1344 160.896 20.9149C163.757 23.9035 168.463 24.2214 171.261 24.2214C174.44 24.2214 177.174 23.7763 179.781 23.0133V41.2628Z" fill="#A18039"/>
<path d="M226.328 8.51536H226.392L226.265 9.85069V40.7541C226.265 41.7715 226.265 42.6617 225.247 43.1704C224.421 43.6156 222.64 43.8699 221.877 43.8699C221.559 43.8699 220.987 43.8699 220.987 44.3786C220.987 44.8873 221.623 44.8873 222.004 44.8873C223.276 44.8873 224.357 44.8237 225.438 44.8237C226.901 44.8237 228.427 44.7601 229.953 44.7601C231.733 44.7601 238.41 44.8873 239.427 45.0145C239.936 45.0781 240.508 45.2052 241.144 45.2052C241.335 45.2052 241.526 45.2052 241.653 45.0145C241.716 44.9509 241.716 44.8873 241.716 44.8237C241.716 44.6329 241.526 44.3786 241.271 44.2514C241.017 44.1242 240.763 44.1242 240.508 44.0607C239.3 43.9335 237.774 43.8063 236.884 43.0433C235.676 42.0895 235.866 39.9911 235.866 38.0835V6.7985C235.866 5.33599 235.803 3.42838 236.629 2.60174C236.947 2.28381 237.329 2.15663 237.774 2.02946C238.219 1.90228 238.601 1.90228 239.046 1.83869C240.127 1.77511 241.716 1.90228 241.716 1.20282C241.716 0.821297 241.271 0.821297 241.144 0.821297C239.364 0.821297 237.774 1.01206 236.057 1.01206C235.994 1.01206 235.866 1.01206 235.803 1.01206H225.883C225.756 1.01206 225.629 1.01206 225.502 1.01206C224.929 1.01206 224.357 0.94847 223.785 0.884884C223.085 0.821297 222.386 0.821297 221.623 0.821297C221.432 0.821297 220.86 0.821297 220.86 1.39358C220.86 2.02946 221.496 2.02946 221.814 2.02946H223.022C223.658 2.02946 224.739 2.02946 225.502 2.7925C225.756 3.04685 225.947 3.3012 226.074 3.61914C226.201 3.93708 226.265 4.3186 226.265 4.70012V5.52676L210.368 36.2394H210.304L210.368 34.9677V5.59034C210.368 4.50936 210.431 3.3012 211.004 2.72891C211.258 2.47457 211.576 2.34739 211.894 2.28381C212.212 2.22022 212.466 2.15663 212.784 2.15663L215.073 2.09304C215.328 2.09304 215.455 2.02946 215.582 1.90228C215.646 1.77511 215.709 1.64793 215.709 1.45717C215.709 1.13923 215.582 1.01206 215.391 0.94847C215.073 0.821297 214.755 0.821297 214.437 0.821297C212.085 0.821297 210.368 1.01206 208.46 1.01206C208.333 1.01206 208.27 1.01206 208.142 1.01206L199.113 0.94847C198.922 0.94847 198.795 0.94847 198.477 0.94847C197.905 0.884884 197.205 0.630534 196.569 0.630534C196.188 0.630534 195.361 0.757711 195.361 1.20282C195.361 1.77511 195.87 1.77511 196.188 1.77511C197.396 1.77511 199.431 1.90228 200.13 2.41098C200.766 2.91968 200.766 3.61914 200.766 4.06425V39.7367C200.766 40.4362 200.766 41.0721 200.766 41.7715C200.766 42.2166 200.766 42.6617 200.512 42.9161C200.003 43.4884 197.078 43.8699 196.124 43.8699C195.806 43.8699 195.234 43.8699 195.234 44.3786C195.234 44.9509 195.934 44.9509 196.188 44.9509C198.668 44.9509 200.13 44.8873 203.373 44.7601C206.108 44.6329 207.125 44.6329 207.634 44.6329L212.911 44.8237C213.039 44.8237 213.102 44.8237 213.229 44.8237C213.865 44.8237 214.437 44.8873 215.073 44.8873C215.264 44.8873 215.455 44.8873 215.582 44.6965C215.646 44.6329 215.646 44.5694 215.646 44.5058C215.646 43.9335 214.755 43.8699 214.437 43.8699C213.102 43.8063 211.512 43.7427 210.813 42.7889C210.304 42.0895 210.368 41.0085 210.368 40.2454V38.9737L226.328 8.51536Z" fill="#A18039"/>
<path d="M257.57 2.22022C260.686 2.09304 262.085 2.02946 263.484 2.02946C267.935 2.02946 270.797 2.85609 272.577 4.19142C274.866 5.90828 275.375 8.07025 275.947 10.4866C276.138 11.3768 276.138 12.0762 276.901 12.0762C277.41 12.0762 277.41 11.504 277.41 11.2496C277.41 9.91428 277.219 8.64254 277.092 7.37079C277.028 6.73492 276.901 5.71752 276.52 0.439775C275.82 0.566947 275.121 0.694124 271.369 0.694124C269.08 0.694124 266.854 0.630534 264.565 0.630534C259.224 0.630534 254.645 0.821297 246.379 0.821297H244.026C243.454 0.821297 243.009 0.821297 243.009 1.45717C243.009 1.96587 243.391 2.02946 243.645 2.02946H244.98C246.633 2.02946 247.206 2.22022 247.46 2.47457C248.032 2.98326 248.032 4.00066 248.032 4.8273V40.2454C248.032 41.0721 248.096 42.2166 247.524 42.8525C247.269 43.1069 246.633 43.6156 244.599 43.8063L242.5 43.9971C242.246 43.9971 241.992 44.0607 241.992 44.4422C241.992 44.8873 242.31 44.9509 242.691 44.9509C244.154 44.9509 248.859 44.8237 252.611 44.8237C270.669 44.8237 268.825 45.1416 278.3 45.2688C278.427 36.7481 278.491 35.4128 278.491 33.9503C278.491 33.5688 278.491 33.1236 278.236 32.8693C278.173 32.8057 278.046 32.7421 277.918 32.7421C277.473 32.7421 277.346 33.5052 277.346 33.6959C277.155 35.3492 276.456 38.2742 275.884 39.4188C275.82 39.546 275.121 40.8813 273.849 41.8351C271.496 43.6156 268.19 43.552 266.091 43.552L257.57 43.6156V22.1866H261.894C263.993 22.1866 266.028 22.3138 267.045 23.2676C267.935 24.1578 268.253 25.8747 268.762 28.9269C268.953 30.0079 268.953 31.2796 269.779 31.2796C270.288 31.2796 270.288 30.7709 270.288 30.5802C270.288 28.7997 269.97 26.2562 270.161 18.0535C270.161 17.354 270.161 16.7181 270.224 16.0187C270.288 15.192 270.352 14.3654 270.352 13.5388C270.352 12.267 270.034 12.2034 269.779 12.2034C269.716 12.2034 269.652 12.2034 269.589 12.2034C268.953 12.3306 268.889 13.8567 268.825 14.5562C268.571 16.4002 268.19 18.4986 266.791 19.6431C265.646 20.5969 263.675 20.9785 260.75 20.9785H257.57V2.22022Z" fill="#A18039"/>
</svg>
