<svg width="25" height="25" viewBox="0 0 25 25" fill="none" xmlns="http://www.w3.org/2000/svg">
<g clip-path="url(#clip0)">
<path d="M14.6905 17.1921C14.4499 16.9515 14.1297 16.819 13.7887 16.819C13.4477 16.819 13.1274 16.9515 12.8868 17.1921L11.5298 18.5492C11.3917 18.6872 11.1671 18.6872 11.0291 18.5492L6.47152 13.9916C6.33351 13.8535 6.33351 13.629 6.47152 13.4909L7.82853 12.1339C8.06916 11.8933 8.2017 11.573 8.2017 11.2321C8.2017 10.8911 8.06916 10.5708 7.82853 10.3302L4.65361 7.15521C4.15634 6.6579 3.34712 6.6579 2.8499 7.15521L0.724778 9.28039C0.0479073 9.95726 -0.49935 11.3314 0.737422 14.0339C1.59131 15.8997 3.13261 17.9983 5.0775 19.9432C7.01136 21.8771 9.11598 23.4137 11.0035 24.2699C12.0699 24.7537 13.0263 24.9956 13.8335 24.9956C14.6256 24.9956 15.274 24.7624 15.7404 24.296L17.8655 22.1708C18.3628 21.6735 18.3628 20.8644 17.8655 20.3671L14.6905 17.1921Z" fill="#E98012"/>
<path d="M17.4086 4.34961C16.6817 4.34961 16.0905 4.9409 16.0905 5.66771C16.0905 6.39453 16.6817 6.98582 17.4086 6.98582C18.1354 6.98582 18.7267 6.39453 18.7267 5.66771C18.7267 4.9409 18.1354 4.34961 17.4086 4.34961V4.34961Z" fill="#E98012"/>
<path d="M17.4146 0.00488281C13.232 0.00488281 9.82922 3.40769 9.82922 7.59028C9.82922 9.01418 10.2215 10.3879 10.9671 11.5873L9.87467 14.5431C9.77557 14.8113 9.84153 15.1126 10.0437 15.3148C10.1835 15.4546 10.3707 15.5293 10.5616 15.5293C10.6467 15.5293 10.7327 15.5144 10.8154 15.4838L13.9338 14.3313C15.0046 14.8846 16.2007 15.1757 17.4146 15.1757C21.5972 15.1757 25 11.7729 25 7.59033C24.9999 3.40769 21.5971 0.00488281 17.4146 0.00488281V0.00488281ZM20.4354 11.4043C20.031 11.4043 19.7031 11.0764 19.7031 10.672C19.7031 9.56622 18.9191 8.62348 17.8345 8.41791C17.6956 8.43934 17.5534 8.45052 17.4086 8.45052C17.2483 8.45052 17.0914 8.43616 16.9385 8.41C16.8997 8.42835 16.859 8.44412 16.8161 8.45569C15.814 8.72585 15.1142 9.63725 15.1142 10.672C15.1142 11.0764 14.7863 11.4043 14.3819 11.4043C13.9775 11.4043 13.6496 11.0764 13.6496 10.672C13.6496 9.38505 14.31 8.21531 15.3452 7.53273C14.8985 7.03888 14.626 6.38461 14.626 5.66785C14.626 4.13348 15.8742 2.88519 17.4087 2.88519C18.943 2.88519 20.1913 4.13348 20.1913 5.66785C20.1913 6.38524 19.9183 7.04 19.471 7.53399C19.7682 7.73005 20.0392 7.96789 20.2732 8.24328C20.85 8.92235 21.1677 9.78488 21.1677 10.672C21.1677 11.0764 20.8398 11.4043 20.4354 11.4043Z" fill="#E98012"/>
</g>
<defs>
<clipPath id="clip0">
<rect width="25" height="25" fill="white"/>
</clipPath>
</defs>
</svg>
