<svg width="25" height="25" viewBox="0 0 25 25" fill="none" xmlns="http://www.w3.org/2000/svg">
<path d="M8.98438 20.7031C8.98438 20.6982 9.1957 20.7016 3.51562 20.7031C2.22314 20.7031 1.17188 19.6519 1.17188 18.3594V5.32227C1.17188 5.18745 1.06255 5.07812 0.927734 5.07812H0.78125C0.349756 5.07812 0 5.42788 0 5.85938V21.4844C0 21.9159 0.349756 22.2656 0.78125 22.2656H10.28C10.4345 22.2656 10.5482 22.1243 10.5194 21.9725C10.3824 21.2495 9.74751 20.7031 8.98438 20.7031Z" fill="#E98012"/>
<path d="M24.2187 5.07812H24.0722C23.9374 5.07812 23.8281 5.18745 23.8281 5.32227V18.3594C23.8281 19.6538 22.7787 20.7031 21.4843 20.7031C15.7616 20.7031 16.0171 20.7007 16.0146 20.7056C15.2453 20.7056 14.6173 21.2564 14.4807 21.9727C14.4518 22.1244 14.5658 22.2656 14.7201 22.2656H24.2187C24.6502 22.2656 25 21.9159 25 21.4844V5.85938C25 5.42788 24.6502 5.07812 24.2187 5.07812Z" fill="#E98012"/>
<path d="M10.1737 2.73444C10.1546 2.73434 10.5634 2.73439 3.51601 2.73439C3.08457 2.73439 2.73442 3.08424 2.73442 3.51569C2.73442 19.3957 2.71587 18.4181 2.76958 18.5913C2.85849 18.8814 3.11889 19.1042 3.43559 19.1367C3.5 19.1427 3.13037 19.1406 8.98442 19.1406C9.90083 19.1406 10.7249 19.5348 11.2964 20.163C11.4455 20.3268 11.7188 20.2178 11.7188 19.9963V4.28365C11.7188 3.42965 11.0277 2.73771 10.1737 2.73444ZM5.4688 5.07814H8.98442C9.41606 5.07814 9.76567 5.42775 9.76567 5.85939C9.76567 6.29103 9.41606 6.64064 8.98442 6.64064H5.4688C5.03716 6.64064 4.68755 6.29103 4.68755 5.85939C4.68755 5.42775 5.03716 5.07814 5.4688 5.07814ZM5.4688 8.20314H8.98442C9.41606 8.20314 9.76567 8.55275 9.76567 8.98439C9.76567 9.41603 9.41606 9.76564 8.98442 9.76564H5.4688C5.03716 9.76564 4.68755 9.41603 4.68755 8.98439C4.68755 8.55275 5.03716 8.20314 5.4688 8.20314ZM5.4688 11.3281H8.98442C9.41606 11.3281 9.76567 11.6777 9.76567 12.1094C9.76567 12.541 9.41606 12.8906 8.98442 12.8906H5.4688C5.03716 12.8906 4.68755 12.541 4.68755 12.1094C4.68755 11.6777 5.03716 11.3281 5.4688 11.3281ZM5.4688 14.4531H8.98442C9.41606 14.4531 9.76567 14.8027 9.76567 15.2344C9.76567 15.666 9.41606 16.0156 8.98442 16.0156H5.4688C5.03716 16.0156 4.68755 15.666 4.68755 15.2344C4.68755 14.8027 5.03716 14.4531 5.4688 14.4531Z" fill="#E98012"/>
<path d="M21.4844 19.1406C21.7951 19.1406 22.0639 18.957 22.1885 18.6982C22.305 18.4584 22.2656 19.5576 22.2656 3.51562C22.2656 3.08413 21.9158 2.73438 21.4844 2.73438H14.8438C13.9515 2.73438 13.2812 3.46465 13.2812 4.3063V19.9963C13.2812 20.2178 13.5546 20.3268 13.7036 20.163C14.2752 19.5347 15.0992 19.1406 16.0156 19.1406H21.4844ZM16.0156 5.07808H19.5313C19.9629 5.07808 20.3125 5.42769 20.3125 5.85933C20.3125 6.29097 19.9629 6.64058 19.5313 6.64058H16.0156C15.584 6.64058 15.2344 6.29097 15.2344 5.85933C15.2344 5.42769 15.584 5.07808 16.0156 5.07808ZM16.0156 8.20308H19.5313C19.9629 8.20308 20.3125 8.55269 20.3125 8.98433C20.3125 9.41597 19.9629 9.76558 19.5313 9.76558H16.0156C15.584 9.76558 15.2344 9.41597 15.2344 8.98433C15.2344 8.55269 15.584 8.20308 16.0156 8.20308ZM16.0156 11.3281H19.5313C19.9629 11.3281 20.3125 11.6777 20.3125 12.1093C20.3125 12.541 19.9629 12.8906 19.5313 12.8906H16.0156C15.584 12.8906 15.2344 12.541 15.2344 12.1093C15.2344 11.6777 15.584 11.3281 16.0156 11.3281ZM16.0156 14.4531H19.5313C19.9629 14.4531 20.3125 14.8027 20.3125 15.2343C20.3125 15.666 19.9629 16.0156 19.5313 16.0156H16.0156C15.584 16.0156 15.2344 15.666 15.2344 15.2343C15.2344 14.8027 15.584 14.4531 16.0156 14.4531Z" fill="#E98012"/>
</svg>
