<svg width="25" height="25" viewBox="0 0 25 25" fill="none" xmlns="http://www.w3.org/2000/svg">
<path d="M21.3912 13.3457H19.4578C19.6548 13.8853 19.7625 14.4675 19.7625 15.0744V22.3816C19.7625 22.6346 19.7185 22.8775 19.6383 23.1033H22.8347C24.0287 23.1033 25 22.1319 25 20.938V16.9545C25.0001 14.9647 23.3811 13.3457 21.3912 13.3457Z" fill="#E98012"/>
<path d="M5.23756 15.0744C5.23756 14.4675 5.34523 13.8853 5.5423 13.3457H3.60889C1.61895 13.3457 0 14.9647 0 16.9546V20.9381C0 22.132 0.97134 23.1034 2.16534 23.1034H5.36173C5.2816 22.8774 5.23756 22.6346 5.23756 22.3816V15.0744Z" fill="#E98012"/>
<path d="M14.7101 11.4658H10.29C8.3001 11.4658 6.68115 13.0848 6.68115 15.0747V22.3819C6.68115 22.7804 7.0043 23.1036 7.40293 23.1036H17.5972C17.9958 23.1036 18.319 22.7805 18.319 22.3819V15.0747C18.319 13.0848 16.7 11.4658 14.7101 11.4658Z" fill="#E98012"/>
<path d="M12.5 1.89648C10.1069 1.89648 8.15991 3.84346 8.15991 6.23668C8.15991 7.85997 9.05586 9.2777 10.379 10.022C11.0066 10.3751 11.7301 10.5768 12.5 10.5768C13.27 10.5768 13.9935 10.3751 14.6211 10.022C15.9443 9.2777 16.8402 7.85992 16.8402 6.23668C16.8402 3.84351 14.8932 1.89648 12.5 1.89648Z" fill="#E98012"/>
<path d="M4.87879 5.94189C3.08899 5.94189 1.63293 7.39795 1.63293 9.18775C1.63293 10.9775 3.08899 12.4336 4.87879 12.4336C5.3328 12.4336 5.76512 12.3396 6.15785 12.1705C6.83685 11.8782 7.39672 11.3607 7.74315 10.7125C7.98632 10.2576 8.12465 9.73858 8.12465 9.18775C8.12465 7.398 6.66859 5.94189 4.87879 5.94189Z" fill="#E98012"/>
<path d="M20.1212 5.94189C18.3314 5.94189 16.8754 7.39795 16.8754 9.18775C16.8754 9.73863 17.0137 10.2576 17.2569 10.7125C17.6033 11.3608 18.1632 11.8782 18.8422 12.1705C19.2349 12.3396 19.6672 12.4336 20.1212 12.4336C21.911 12.4336 23.3671 10.9775 23.3671 9.18775C23.3671 7.39795 21.911 5.94189 20.1212 5.94189Z" fill="#E98012"/>
</svg>
