<svg width="155" height="18" viewBox="0 0 155 18" fill="none" xmlns="http://www.w3.org/2000/svg">
<path fill-rule="evenodd" clip-rule="evenodd" d="M13.7897 9.32909C12.885 7.66902 11.2677 6.13244 13.1043 4.51354L13.0632 4.40378C11.5555 4.3489 10.8839 5.50134 10.7331 6.13244C10.5001 7.20256 11.2266 8.20409 11.2266 8.20409C11.2266 8.20409 8.0467 7.06537 8.58125 3.73152C8.92391 1.70104 10.7057 0.919024 11.2129 0.740671L11.1855 0.644634C10.692 0.493719 9.10209 0.0409753 7.37509 0.356524C3.31801 1.06994 2.53675 3.63549 2.4408 5.18579C2.31744 6.20104 2.6601 6.96933 2.6601 6.96933C2.6601 6.96933 1.97478 6.5989 1.50877 5.77573C0.974221 4.82909 1.28947 3.66293 1.41282 3.2925L1.358 3.23762C1.27576 3.2925 1.1524 3.40226 1.00163 3.55317C0.425967 4.12939 -0.45124 5.36415 0.275197 7.12024C1.20723 9.37024 3.9485 11.1263 4.97648 12.1004C8.11523 15.0638 5.2369 17.4785 4.05815 17.5196L4.09927 17.6157C6.18264 17.9861 8.36195 17.0532 8.9102 14.6248C9.40363 12.3748 7.45733 10.8245 5.78515 8.89006C4.31857 7.21628 4.07186 4.95256 5.11354 3.4297C5.92221 2.2361 6.88166 1.89311 7.23803 1.81079L7.26544 1.85195C6.79942 2.19494 5.12725 3.70409 5.96333 6.36567C6.63495 8.51964 9.59552 10.262 10.555 11.6202C12.2957 14.1035 11.0073 15.7361 10.4179 16.2986L10.4727 16.3809C10.788 16.2437 11.2814 16.0105 11.6378 15.791C13.2688 14.7757 15.2837 12.0318 13.7897 9.32909Z" fill="url(#paint0_linear)"/>
<path d="M67.1622 16.6968H67.0114C65.8327 16.6419 65.2022 15.7502 65.2022 14.1587V3.70443C65.2022 2.18156 65.8053 1.38583 67.0114 1.33095H67.1622C67.3267 1.33095 67.4089 1.26235 67.4089 1.11144V0.507781C67.4089 0.398025 67.3815 0.288269 67.1622 0.288269H48.4393C48.22 0.288269 48.1926 0.398025 48.1926 0.507781V1.11144C48.1926 1.2212 48.22 1.33095 48.4393 1.33095H48.5901C49.7963 1.38583 50.4131 2.18156 50.4131 3.70443V14.1724C50.4131 15.7502 49.7689 16.6556 48.6038 16.7105H48.453C48.2749 16.7105 48.2063 16.7791 48.2063 16.93V17.4788C48.2063 17.5886 48.2337 17.6983 48.453 17.6983H55.5392C55.7174 17.6983 55.7859 17.6297 55.7859 17.4788V16.93C55.7859 16.7654 55.7174 16.7105 55.5392 16.7105H55.3748C54.196 16.6556 53.5518 15.7639 53.5518 14.1724V4.10229C53.5518 2.57943 54.1549 1.7837 55.361 1.72882H55.5118C55.5255 1.72882 55.5392 1.72882 55.5529 1.72882H60.0897C60.1034 1.72882 60.1172 1.72882 60.1309 1.72882H60.2816C61.4878 1.7837 62.1046 2.57943 62.1046 4.10229V14.1724C62.1046 15.7502 61.4604 16.6556 60.2953 16.7105H60.1171C59.939 16.7105 59.8704 16.7791 59.8704 16.93V17.4788C59.8704 17.6435 59.939 17.6983 60.1171 17.6983H67.1622C67.3267 17.6983 67.4089 17.6297 67.4089 17.4788V16.93C67.3952 16.7654 67.3267 16.6968 67.1622 16.6968Z" fill="#2B2E32"/>
<path d="M40.4073 17.3417V16.45C40.4073 16.3128 40.3799 16.2442 40.188 16.2442H21.986C21.8215 16.2442 21.7804 16.2853 21.7804 16.45V17.3417C21.7804 17.5064 21.8215 17.5475 21.986 17.5475H40.188C40.3799 17.5475 40.4073 17.4926 40.4073 17.3417Z" fill="#2B2E32"/>
<path d="M22.4384 0.946648C23.1237 0.974087 23.9186 1.31707 23.9186 2.82622V10.2896C23.9186 11.7851 23.1237 12.1281 22.4521 12.1692H22.315V12.6631H27.6331C27.6331 12.6631 27.6331 12.6631 27.6468 12.6631V12.1692C27.6468 12.1692 27.6468 12.1692 27.6331 12.1692H27.5234C26.8381 12.1418 26.0431 11.7851 26.0431 10.2896V2.8125C26.0431 1.31707 26.8381 0.974087 27.5097 0.932928H27.6331C27.6331 0.932928 27.6331 0.932928 27.6468 0.932928V0.439026C27.6468 0.439026 27.6468 0.439026 27.6331 0.439026H22.315V0.932928H22.4384V0.946648Z" fill="#2B2E32"/>
<path d="M83.541 17.6708H90.6546C90.8739 17.6708 90.9013 17.561 90.9013 17.4513V16.9162C90.9013 16.8065 90.8739 16.6967 90.6546 16.6967C89.7225 16.6967 89.2154 15.4619 88.722 14.2546L88.6946 14.1997L83.0612 0.480237C83.0064 0.329323 82.9105 0.274445 82.7597 0.274445H76.9208C76.7015 0.274445 76.6741 0.384201 76.6741 0.493957V1.09762C76.6741 1.20737 76.7015 1.31713 76.9208 1.31713C78.0721 1.31713 79.0042 2.11286 79.0042 3.10066C79.0042 3.30646 78.963 3.52597 78.8808 3.73176L78.7986 3.95127L74.8237 14.0763C74.3851 15.2699 73.6998 16.7104 72.8363 16.7104C72.6581 16.7104 72.5896 16.779 72.5896 16.9299V17.4238C72.5896 17.5336 72.617 17.6433 72.8363 17.6433H78.8397C79.0179 17.6433 79.0864 17.5747 79.0864 17.4238V16.9299C79.0864 16.7653 79.0179 16.7104 78.8397 16.7104C78.2366 16.7104 77.6198 16.4223 77.1949 15.9558C76.866 15.5854 76.7015 15.1327 76.7563 14.6937C76.7837 14.4879 76.7974 14.2821 76.866 14.0763L77.6061 12.0869C77.6198 12.0321 77.6746 12.0046 77.7295 12.0046H84.5689C84.6238 12.0046 84.6786 12.0321 84.6923 12.0869L85.4736 14.0763C85.5558 14.2958 85.6106 14.5153 85.6106 14.7348C85.6106 15.7638 84.6512 16.6693 83.5547 16.6693C83.3354 16.6693 83.308 16.779 83.308 16.8888V17.4238C83.2942 17.561 83.3217 17.6708 83.541 17.6708ZM84.0344 10.715C84.007 10.7562 83.9659 10.7699 83.9247 10.7699H78.264C78.2229 10.7699 78.1818 10.7424 78.1544 10.715C78.1269 10.6738 78.1269 10.6327 78.1406 10.5915L80.9093 3.16926C80.923 3.11438 80.9779 3.08694 81.0327 3.08694C81.0875 3.08694 81.1423 3.11438 81.156 3.16926L84.0481 10.5915C84.0755 10.6327 84.0618 10.6738 84.0344 10.715Z" fill="#2B2E32"/>
<path d="M154.143 9.1372C154.143 8.49238 154.074 7.84756 153.923 7.20274C152.923 2.75762 149.716 0 145.563 0C144.946 0 144.315 0.0685976 143.712 0.192073C138.983 1.13872 137.298 5.30945 137.298 8.90396C137.298 9.54878 137.366 10.2073 137.517 10.8247C138.517 15.2561 141.697 18 145.837 18C146.453 18 147.084 17.9314 147.701 17.8079C151.676 17.0122 154.143 13.6784 154.143 9.1372ZM147.385 16.2576C146.988 16.3537 146.59 16.4085 146.22 16.4085C146.207 16.4085 146.179 16.4085 146.166 16.4085C145.069 16.4085 141.738 15.9284 140.436 10.2485C140.231 9.38415 140.121 8.51982 140.107 7.69665C140.066 5.81707 140.532 2.53811 144.041 1.71494C144.439 1.6189 144.822 1.57774 145.192 1.56402C146.22 1.53659 149.688 1.94817 151.018 7.77896C151.223 8.65701 151.319 9.4939 151.347 10.3034C151.388 13.5412 149.99 15.654 147.385 16.2576Z" fill="#2B2E32"/>
<path d="M132.487 16.7105H132.336C131.143 16.6556 130.513 15.805 130.513 14.2273V3.70443C130.513 2.18156 131.116 1.38583 132.322 1.33095H132.473C132.692 1.33095 132.72 1.2212 132.72 1.11144V0.507781C132.72 0.398025 132.692 0.288269 132.473 0.288269H130.993H130.979H129.033C128.895 0.288269 128.8 0.315708 128.704 0.356867C128.69 0.356867 128.662 0.370586 128.649 0.370586L119.397 12.3477C119.356 12.3889 119.301 12.4163 119.246 12.3889C119.191 12.3752 119.15 12.3203 119.15 12.2654V3.70443C119.15 2.18156 119.753 1.38583 120.96 1.33095H121.138C121.357 1.33095 121.384 1.2212 121.384 1.11144V0.507781C121.384 0.398025 121.357 0.288269 121.138 0.288269H114.106C113.887 0.288269 113.86 0.398025 113.86 0.507781V1.11144C113.86 1.2212 113.887 1.33095 114.106 1.33095H114.257C115.463 1.38583 116.08 2.18156 116.08 3.70443V15.1877V15.2014V17.4651C116.08 17.5749 116.107 17.6846 116.327 17.6846H117.135C117.3 17.6846 117.41 17.6297 117.506 17.5749L127.155 5.48796C127.182 5.46053 127.223 5.43309 127.264 5.43309C127.278 5.43309 127.292 5.43309 127.306 5.44681C127.36 5.46053 127.388 5.5154 127.388 5.57028V14.241C127.388 15.805 126.757 16.6694 125.579 16.7242H125.4C125.181 16.7242 125.154 16.834 125.154 16.9438V17.4788C125.154 17.5886 125.181 17.6983 125.4 17.6983H132.473C132.692 17.6983 132.72 17.5886 132.72 17.4788V16.9438C132.733 16.8203 132.706 16.7105 132.487 16.7105Z" fill="#2B2E32"/>
<path d="M108.418 0.411747C108.418 0.398027 108.418 0.384308 108.418 0.384308C108.377 0.384308 108.336 0.384308 108.267 0.398027C108.103 0.411747 107.856 0.425466 107.527 0.425466H102.607C102.593 0.425466 102.566 0.425466 102.552 0.425466H99.0978C99.0841 0.425466 99.0567 0.425466 99.043 0.425466H94.0813C93.7523 0.425466 93.5056 0.411747 93.3411 0.398027C93.2726 0.398027 93.2315 0.384308 93.1904 0.384308V0.398027L92.5325 4.81571V4.82943C92.5188 4.87059 92.5188 4.89803 92.5325 4.91175C92.5325 4.92547 92.5599 4.93919 92.6284 4.95291L93.533 5.14498C93.5604 5.14498 93.5741 5.1587 93.5879 5.1587C93.6016 5.1587 93.6153 5.1587 93.6153 5.1587C93.6427 5.14498 93.6564 5.11754 93.6701 5.06266L93.6975 4.91175V4.89803C94.6295 1.67394 96.9459 1.57791 98.481 1.50931H98.947C98.9607 1.50931 98.9745 1.50931 98.9882 1.50931C99.0019 1.50931 99.0156 1.50931 99.0567 1.50931C99.1938 1.50931 99.3171 1.63278 99.3171 1.76998V14.1587C99.3171 15.805 98.6181 16.738 97.3845 16.7928H97.22C97.1104 16.7928 97.1104 16.8066 97.1104 16.8889V17.5749C97.1104 17.6435 97.1104 17.6709 97.22 17.6709H104.471C104.58 17.6709 104.58 17.6572 104.58 17.5749V16.8889C104.58 16.8203 104.58 16.7928 104.471 16.7928H104.306C103.059 16.738 102.36 15.805 102.36 14.1587V1.76998C102.36 1.63278 102.47 1.52303 102.593 1.50931C102.648 1.50931 102.675 1.50931 102.689 1.50931H103.141C104.676 1.57791 106.979 1.68766 107.897 4.91175L107.938 5.07638C107.952 5.11754 107.966 5.17242 107.993 5.17242C107.993 5.17242 108.007 5.17242 108.021 5.17242C108.034 5.17242 108.062 5.17242 108.089 5.1587L108.994 4.96663C109.062 4.95291 109.09 4.92547 109.09 4.92547C109.09 4.91175 109.103 4.89803 109.09 4.84315L108.418 0.411747Z" fill="#2B2E32"/>
<path d="M31.4984 0.452637V0.946539C31.4984 0.946539 31.4984 0.946539 31.5121 0.946539H31.5258C32.2385 0.946539 33.0883 1.27581 33.0883 2.82611V10.2895C33.0883 11.8398 32.2385 12.1691 31.5258 12.1691H31.5121C31.5121 12.1691 31.5121 12.1691 31.4984 12.1691V12.663C31.4984 12.663 31.4984 12.663 31.5121 12.663H39.7085C39.9552 12.663 40.1471 12.6767 40.2567 12.6904C40.2704 12.6904 40.2704 12.6904 40.2841 12.6904L40.7775 9.08221V9.06849C40.7775 9.06849 40.7775 9.06849 40.7638 9.06849L40.1196 8.9313H40.1059C40.1059 8.9313 40.1059 8.9313 40.1059 8.94501L40.0785 9.05477C39.3932 11.6889 38.2967 11.9496 37.0631 12.0045H36.7342C36.0489 11.977 35.2265 11.6478 35.2265 10.1249V1.20721C35.2265 1.0563 35.3498 0.946539 35.4869 0.946539H36.5697C36.6519 0.946539 36.7616 0.9191 36.8027 0.891661V0.466356C36.789 0.466356 36.7753 0.452637 36.7479 0.452637H31.4984C31.5121 0.452637 31.4984 0.452637 31.4984 0.452637Z" fill="#2B2E32"/>
<defs>
<linearGradient id="paint0_linear" x1="1.57476" y1="8.97477" x2="15.0878" y2="8.97477" gradientUnits="userSpaceOnUse">
<stop offset="0.098026" stop-color="#F47D20"/>
<stop offset="0.3411" stop-color="#C54A1A"/>
<stop offset="0.5331" stop-color="#F37021"/>
<stop offset="0.7745" stop-color="#A93C12"/>
<stop offset="0.9432" stop-color="#F47D20"/>
</linearGradient>
</defs>
</svg>
