<svg width="187" height="33" viewBox="0 0 187 33" fill="none" xmlns="http://www.w3.org/2000/svg">
<path fill-rule="evenodd" clip-rule="evenodd" d="M16.6845 11.2877C15.59 9.27919 13.6331 7.42003 15.8553 5.46128L15.8055 5.32848C13.9813 5.26208 13.1687 6.65645 12.9863 7.42003C12.7044 8.7148 13.5833 9.92657 13.5833 9.92657C13.5833 9.92657 9.73591 8.5488 10.3827 4.5151C10.7973 2.05836 12.9531 1.11218 13.5667 0.896389L13.5336 0.780191C12.9366 0.597596 11.0129 0.049809 8.92331 0.4316C4.01454 1.29478 3.06927 4.3989 2.95319 6.27466C2.80394 7.50303 3.21853 8.43261 3.21853 8.43261C3.21853 8.43261 2.38934 7.98442 1.8255 6.98844C1.17874 5.84307 1.56016 4.4321 1.70941 3.98391L1.64308 3.91752C1.54358 3.98391 1.39432 4.11671 1.2119 4.29931C0.515389 4.99649 -0.545967 6.49045 0.332968 8.6152C1.46066 11.3375 4.77739 13.4623 6.02117 14.6409C9.81883 18.2264 6.33626 21.1479 4.91006 21.1977L4.95981 21.3139C7.48053 21.7621 10.1173 20.6333 10.7807 17.6952C11.3777 14.9728 9.02281 13.0971 6.99961 10.7566C5.22515 8.7314 4.92665 5.99247 6.18701 4.14991C7.16544 2.70574 8.3263 2.29075 8.75748 2.19116L8.79064 2.24096C8.2268 2.65595 6.20359 4.4819 7.21519 7.70222C8.02779 10.3084 11.6099 12.4165 12.7707 14.0599C14.8769 17.0644 13.318 19.0398 12.6049 19.7203L12.6712 19.8199C13.0526 19.6539 13.6497 19.3717 14.0808 19.1061C16.0543 17.8778 18.4921 14.5579 16.6845 11.2877Z" fill="url(#paint0_linear)"/>
<path d="M49.5036 28.0542V32.9013H48.7076V29.5482L46.1703 32.9013H45.623V28.0542H46.4191V31.3741L48.9398 28.0542H49.5036Z" fill="#2B2E32"/>
<path d="M56.6678 28.8003H55.2416V32.9004H54.4456V28.8003H53.0194V28.0533H56.6512V28.8003H56.6678Z" fill="#2B2E32"/>
<path d="M62.6379 31.8547H60.482L60.0675 32.917H59.2217L61.162 28.0699H61.9082L63.9149 32.917H63.0525L62.6379 31.8547ZM60.764 31.1409H62.3726L61.56 29.0991L60.764 31.1409Z" fill="#2B2E32"/>
<path d="M71.3278 28.0533V32.9004H70.5317V28.8003H68.9397L68.7075 31.2737C68.608 32.3692 68.0939 32.917 67.1487 32.917H66.9165V32.1368H67.1487C67.613 32.1368 67.8452 31.8713 67.9115 31.3069L68.2266 28.0533H71.3278Z" fill="#2B2E32"/>
<path d="M78.8401 31.2903C78.8401 32.2198 78.1436 32.9004 77.1651 32.9004H75.3409V28.0533H76.137V29.6635H77.1651C78.127 29.6801 78.8401 30.3441 78.8401 31.2903ZM78.0275 31.2903C78.0275 30.7757 77.6461 30.4271 77.0988 30.4271H76.137V32.17H77.0988C77.6461 32.1534 78.0275 31.7883 78.0275 31.2903Z" fill="#2B2E32"/>
<path d="M85.6726 28.0533V32.9004H84.8766V31.1077H83.9811L82.9529 32.9004H82.0408L83.1685 30.9915C82.5217 30.7757 82.1237 30.2445 82.1237 29.5805C82.1237 28.7007 82.8202 28.0533 83.7655 28.0533H85.6726ZM84.86 30.3939V28.8169H83.7821C83.268 28.8169 82.9197 29.1323 82.9197 29.5971C82.9197 30.0619 83.2845 30.3939 83.7821 30.3939H84.86Z" fill="#2B2E32"/>
<path d="M93.4836 28.0533V32.9004H92.6875V30.7923H90.4653V32.9004H89.6693V28.0533H90.4653V30.0453H92.6875V28.0533H93.4836Z" fill="#2B2E32"/>
<path d="M99.6526 33C98.2264 33 97.165 31.9376 97.165 30.4935C97.165 29.0493 98.2264 27.9869 99.6526 27.9869C100.797 27.9869 101.709 28.7007 101.974 29.7963H101.162C100.93 29.1489 100.366 28.7671 99.6526 28.7671C98.6742 28.7671 97.9776 29.4975 97.9776 30.5101C97.9776 31.5227 98.6907 32.253 99.6526 32.253C100.399 32.253 100.963 31.838 101.178 31.1409H101.991C101.742 32.253 100.83 33 99.6526 33Z" fill="#2B2E32"/>
<path d="M105.606 28.0533H106.402V32.9004H105.606V28.0533ZM109.42 32.9004H108.392L106.402 30.4437V30.3607L108.26 28.0533H109.238L107.364 30.3773L109.42 32.9004Z" fill="#2B2E32"/>
<path d="M115.656 31.8547H113.5L113.085 32.917H112.24L114.18 28.0699H114.926L116.933 32.917H116.07L115.656 31.8547ZM113.765 31.1409H115.374L114.561 29.0991L113.765 31.1409Z" fill="#2B2E32"/>
<path d="M123.649 28.0533V32.9004H122.853V31.1077H121.958L120.929 32.9004H120.017L121.145 30.9915C120.498 30.7757 120.1 30.2445 120.1 29.5805C120.1 28.7007 120.797 28.0533 121.742 28.0533H123.649ZM122.853 30.3939V28.8169H121.775C121.261 28.8169 120.913 29.1323 120.913 29.5971C120.913 30.0619 121.278 30.3939 121.775 30.3939H122.853Z" fill="#2B2E32"/>
<path d="M132.173 28.0533H132.969V32.9004H132.173V28.0533ZM136.004 32.9004H134.976L132.986 30.4437V30.3607L134.827 28.0533H135.805L133.931 30.3773L136.004 32.9004Z" fill="#2B2E32"/>
<path d="M142.936 28.0533L141.493 31.3733C140.979 32.5684 140.531 32.917 139.586 32.917H139.371V32.17H139.653C140.133 32.17 140.332 32.0372 140.614 31.4895L138.79 28.0367H139.702L141.029 30.5599L142.107 28.0367H142.936V28.0533Z" fill="#2B2E32"/>
<path d="M149.039 32.9004L147.861 31.0081L146.684 32.9004H145.788L147.38 30.3607L145.905 28.0533H146.8L147.861 29.7631L148.923 28.0533H149.802L148.342 30.3939L149.934 32.9004H149.039Z" fill="#2B2E32"/>
<path d="M157.148 28.0533V32.9004H156.352V30.7923H154.13V32.9004H153.334V28.0533H154.13V30.0453H156.352V28.0533H157.148Z" fill="#2B2E32"/>
<path d="M164.462 28.0533V32.9004H163.666V31.1077H162.77L161.742 32.9004H160.83L161.958 30.9915C161.311 30.7757 160.913 30.2445 160.913 29.5805C160.913 28.7007 161.609 28.0533 162.555 28.0533H164.462ZM163.666 30.3939V28.8169H162.588C162.074 28.8169 161.725 29.1323 161.725 29.5971C161.725 30.0619 162.09 30.3939 162.588 30.3939H163.666Z" fill="#2B2E32"/>
<path d="M81.2614 20.2017H81.0789C79.6528 20.1354 78.8899 19.0564 78.8899 17.1308V4.48193C78.8899 2.63938 79.6196 1.6766 81.0789 1.6102H81.2614C81.4604 1.6102 81.5599 1.5272 81.5599 1.34461V0.614226C81.5599 0.48143 81.5267 0.348633 81.2614 0.348633H58.6081C58.3427 0.348633 58.3096 0.48143 58.3096 0.614226V1.34461C58.3096 1.47741 58.3427 1.6102 58.6081 1.6102H58.7905C60.2499 1.6766 60.9961 2.63938 60.9961 4.48193V17.1474C60.9961 19.0564 60.2167 20.152 58.8071 20.2183H58.6247C58.4091 20.2183 58.3262 20.3013 58.3262 20.4839V21.1479C58.3262 21.2807 58.3593 21.4135 58.6247 21.4135H67.1984C67.414 21.4135 67.4969 21.3305 67.4969 21.1479V20.4839C67.4969 20.2847 67.414 20.2183 67.1984 20.2183H66.9994C65.5732 20.152 64.7938 19.073 64.7938 17.1474V4.96332C64.7938 3.12076 65.5235 2.15799 66.9828 2.09159H67.1652C67.1818 2.09159 67.1984 2.09159 67.215 2.09159H72.7042C72.7208 2.09159 72.7374 2.09159 72.7539 2.09159H72.9364C74.3957 2.15799 75.142 3.12076 75.142 4.96332V17.1474C75.142 19.0564 74.3626 20.152 72.9529 20.2183H72.7374C72.5218 20.2183 72.4389 20.3013 72.4389 20.4839V21.1479C72.4389 21.3471 72.5218 21.4135 72.7374 21.4135H81.2614C81.4604 21.4135 81.5599 21.3305 81.5599 21.1479V20.4839C81.5433 20.2847 81.4604 20.2017 81.2614 20.2017Z" fill="#2B2E32"/>
<path d="M48.89 20.9819V19.9029C48.89 19.7369 48.8568 19.6539 48.6247 19.6539H26.6015C26.4025 19.6539 26.3528 19.7037 26.3528 19.9029V20.9819C26.3528 21.1811 26.4025 21.2309 26.6015 21.2309H48.6247C48.8568 21.2309 48.89 21.1645 48.89 20.9819Z" fill="#2B2E32"/>
<path d="M27.1488 1.14544C27.9779 1.17863 28.9398 1.59362 28.9398 3.41958V12.4498C28.9398 14.2591 27.9779 14.6741 27.1653 14.7239H26.9995V15.3215H33.434C33.434 15.3215 33.434 15.3215 33.4506 15.3215V14.7239C33.4506 14.7239 33.4506 14.7239 33.434 14.7239H33.3013C32.4721 14.6907 31.5103 14.2591 31.5103 12.4498V3.40298C31.5103 1.59362 32.4721 1.17863 33.2847 1.12884H33.434C33.434 1.12884 33.434 1.12884 33.4506 1.12884V0.53125C33.4506 0.53125 33.4506 0.53125 33.434 0.53125H26.9995V1.12884H27.1488V1.14544Z" fill="#2B2E32"/>
<path d="M101.079 21.3803H109.686C109.951 21.3803 109.984 21.2475 109.984 21.1147V20.4673C109.984 20.3345 109.951 20.2017 109.686 20.2017C108.558 20.2017 107.945 18.7078 107.348 17.247L107.314 17.1806L100.498 0.581025C100.432 0.39843 100.316 0.332031 100.134 0.332031H93.0689C92.8036 0.332031 92.7704 0.464828 92.7704 0.597625V1.32801C92.7704 1.4608 92.8036 1.5936 93.0689 1.5936C94.462 1.5936 95.5897 2.55638 95.5897 3.75155C95.5897 4.00054 95.5399 4.26614 95.4404 4.51513L95.3409 4.78072L90.5316 17.0312C90.001 18.4754 89.1718 20.2184 88.127 20.2184C87.9114 20.2184 87.8285 20.3013 87.8285 20.4839V21.0815C87.8285 21.2143 87.8617 21.3471 88.127 21.3471H95.3907C95.6062 21.3471 95.6892 21.2641 95.6892 21.0815V20.4839C95.6892 20.2847 95.6062 20.2184 95.3907 20.2184C94.661 20.2184 93.9147 19.8698 93.4006 19.3054C93.0026 18.8572 92.8036 18.3094 92.8699 17.7782C92.9031 17.5292 92.9197 17.2802 93.0026 17.0312L93.8981 14.6243C93.9147 14.5579 93.981 14.5247 94.0474 14.5247H102.323C102.389 14.5247 102.455 14.5579 102.472 14.6243L103.417 17.0312C103.517 17.2968 103.583 17.5624 103.583 17.828C103.583 19.073 102.422 20.1686 101.095 20.1686C100.83 20.1686 100.797 20.3013 100.797 20.4341V21.0815C100.78 21.2475 100.814 21.3803 101.079 21.3803ZM101.676 12.9643C101.643 13.0141 101.593 13.0307 101.543 13.0307H94.6941C94.6444 13.0307 94.5946 12.9975 94.5615 12.9643C94.5283 12.9145 94.5283 12.8647 94.5449 12.8149L97.8948 3.83455C97.9114 3.76815 97.9777 3.73495 98.0441 3.73495C98.1104 3.73495 98.1767 3.76815 98.1933 3.83455L101.692 12.8149C101.726 12.8647 101.709 12.9145 101.676 12.9643Z" fill="#2B2E32"/>
<path d="M186.501 11.0553C186.501 10.2752 186.418 9.49497 186.236 8.71479C185.025 3.33652 181.145 0 176.12 0C175.374 0 174.611 0.082998 173.881 0.232394C168.16 1.37777 166.12 6.42404 166.12 10.7731C166.12 11.5533 166.203 12.3501 166.385 13.0971C167.596 18.4588 171.443 21.7787 176.452 21.7787C177.198 21.7787 177.961 21.6957 178.707 21.5463C183.516 20.5835 186.501 16.5498 186.501 11.0553ZM178.326 19.6705C177.845 19.7867 177.364 19.8531 176.916 19.8531C176.899 19.8531 176.866 19.8531 176.85 19.8531C175.523 19.8531 171.493 19.2721 169.918 12.3999C169.669 11.3541 169.536 10.3083 169.52 9.31237C169.47 7.03823 170.034 3.07093 174.279 2.07495C174.76 1.95875 175.224 1.90895 175.672 1.89235C176.916 1.85915 181.112 2.35714 182.72 9.41197C182.969 10.4743 183.085 11.4869 183.118 12.4663C183.168 16.3838 181.476 18.9401 178.326 19.6705Z" fill="#2B2E32"/>
<path d="M160.299 20.2183H160.117C158.674 20.152 157.911 19.1228 157.911 17.2138V4.48193C157.911 2.63938 158.641 1.6766 160.1 1.6102H160.283C160.548 1.6102 160.581 1.47741 160.581 1.34461V0.614226C160.581 0.48143 160.548 0.348633 160.283 0.348633H158.492H158.475H156.12C155.954 0.348633 155.838 0.381832 155.722 0.431631C155.705 0.431631 155.672 0.44823 155.656 0.44823L144.462 14.9397C144.412 14.9895 144.346 15.0227 144.279 14.9895C144.213 14.9729 144.163 14.9065 144.163 14.8401V4.48193C144.163 2.63938 144.893 1.6766 146.352 1.6102H146.568C146.833 1.6102 146.866 1.47741 146.866 1.34461V0.614226C146.866 0.48143 146.833 0.348633 146.568 0.348633H138.06C137.795 0.348633 137.762 0.48143 137.762 0.614226V1.34461C137.762 1.47741 137.795 1.6102 138.06 1.6102H138.243C139.702 1.6766 140.449 2.63938 140.449 4.48193V18.3758V18.3924V21.1313C140.449 21.2641 140.482 21.3969 140.747 21.3969H141.725C141.924 21.3969 142.057 21.3305 142.173 21.2641L153.848 6.63988C153.881 6.60668 153.931 6.57348 153.981 6.57348C153.997 6.57348 154.014 6.57348 154.031 6.59008C154.097 6.60668 154.13 6.67308 154.13 6.73948V17.2304C154.13 19.1228 153.367 20.1686 151.941 20.2349H151.725C151.46 20.2349 151.427 20.3677 151.427 20.5005V21.1479C151.427 21.2807 151.46 21.4135 151.725 21.4135H160.283C160.548 21.4135 160.581 21.2807 160.581 21.1479V20.5005C160.598 20.3511 160.565 20.2183 160.299 20.2183Z" fill="#2B2E32"/>
<path d="M131.178 0.498043C131.178 0.481443 131.178 0.464844 131.178 0.464844C131.128 0.464844 131.079 0.464844 130.996 0.481443C130.797 0.498043 130.498 0.514643 130.1 0.514643H124.147C124.13 0.514643 124.097 0.514643 124.08 0.514643H119.901C119.885 0.514643 119.852 0.514643 119.835 0.514643H113.832C113.434 0.514643 113.135 0.498043 112.936 0.481443C112.853 0.481443 112.804 0.464844 112.754 0.464844V0.481443L111.958 5.82651V5.84311C111.941 5.89291 111.941 5.92611 111.958 5.94271C111.958 5.95931 111.991 5.97591 112.074 5.99251L113.168 6.2249C113.202 6.2249 113.218 6.2415 113.235 6.2415C113.251 6.2415 113.268 6.2415 113.268 6.2415C113.301 6.2249 113.318 6.19171 113.334 6.12531L113.367 5.94271V5.92611C114.495 2.02521 117.298 1.90901 119.155 1.82601H119.719C119.735 1.82601 119.752 1.82601 119.769 1.82601C119.785 1.82601 119.802 1.82601 119.852 1.82601C120.017 1.82601 120.167 1.97541 120.167 2.1414V17.1308C120.167 19.1228 119.321 20.2516 117.828 20.318H117.629C117.497 20.318 117.497 20.3346 117.497 20.4342V21.2641C117.497 21.3471 117.497 21.3803 117.629 21.3803H126.402C126.535 21.3803 126.535 21.3637 126.535 21.2641V20.4342C126.535 20.3512 126.535 20.318 126.402 20.318H126.203C124.694 20.2516 123.848 19.1228 123.848 17.1308V2.1414C123.848 1.97541 123.981 1.84261 124.13 1.82601C124.197 1.82601 124.23 1.82601 124.246 1.82601H124.794C126.651 1.90901 129.437 2.04181 130.548 5.94271L130.598 6.14191C130.614 6.1917 130.631 6.2581 130.664 6.2581C130.664 6.2581 130.681 6.2581 130.697 6.2581C130.714 6.2581 130.747 6.2581 130.78 6.2415L131.875 6.00911C131.958 5.99251 131.991 5.95931 131.991 5.95931C131.991 5.94271 132.007 5.92611 131.991 5.85971L131.178 0.498043Z" fill="#2B2E32"/>
<path d="M38.1106 0.547729V1.14531C38.1106 1.14531 38.1106 1.14531 38.1272 1.14531H38.1438C39.0061 1.14531 40.0343 1.54371 40.0343 3.41946V12.4496C40.0343 14.3254 39.0061 14.7238 38.1438 14.7238H38.1272C38.1272 14.7238 38.1272 14.7238 38.1106 14.7238V15.3214C38.1106 15.3214 38.1106 15.3214 38.1272 15.3214H48.0442C48.3427 15.3214 48.5749 15.338 48.7076 15.3546C48.7241 15.3546 48.7241 15.3546 48.7407 15.3546L49.3377 10.9889V10.9723C49.3377 10.9723 49.3377 10.9723 49.3212 10.9723L48.5417 10.8063H48.5251C48.5251 10.8063 48.5251 10.8063 48.5251 10.8229L48.492 10.9557C47.6628 14.1428 46.3361 14.4582 44.8436 14.5246H44.4456C43.6164 14.4914 42.6214 14.093 42.6214 12.2504V1.46071C42.6214 1.27811 42.7706 1.14531 42.9364 1.14531H44.2466C44.3461 1.14531 44.4787 1.11212 44.5285 1.07892V0.564329C44.5119 0.564329 44.4953 0.547729 44.4621 0.547729H38.1106C38.1272 0.547729 38.1106 0.547729 38.1106 0.547729Z" fill="#2B2E32"/>
<defs>
<linearGradient id="paint0_linear" x1="1.90535" y1="10.859" x2="18.2551" y2="10.859" gradientUnits="userSpaceOnUse">
<stop offset="0.098026" stop-color="#F47D20"/>
<stop offset="0.3411" stop-color="#C54A1A"/>
<stop offset="0.5331" stop-color="#F37021"/>
<stop offset="0.7745" stop-color="#A93C12"/>
<stop offset="0.9432" stop-color="#F47D20"/>
</linearGradient>
</defs>
</svg>
