<svg width="14" height="12" viewBox="0 0 14 12" fill="none" xmlns="http://www.w3.org/2000/svg">
<path d="M10.7501 6.99999H10.2501C10.177 6.99999 10.1171 7.02339 10.0705 7.0704C10.0235 7.11714 10.0001 7.17704 10.0001 7.24999V9.74999C10.0001 10.0938 9.87776 10.388 9.63299 10.6328C9.38822 10.8776 9.09389 10.9999 8.75012 10.9999H2.24997C1.90623 10.9999 1.61193 10.8776 1.3671 10.6328C1.12233 10.388 0.999961 10.0938 0.999961 9.74999V3.24993C0.999961 2.90618 1.12231 2.61199 1.3671 2.36719C1.61193 2.12237 1.90623 2.00002 2.24997 2.00002H7.74997C7.823 2.00002 7.88293 1.97652 7.92975 1.9297C7.97657 1.88282 7.99996 1.82298 7.99996 1.75V1.24992C7.99996 1.17708 7.97657 1.11712 7.92975 1.07033C7.88293 1.02346 7.823 1.00006 7.74997 1.00006H2.24997C1.63024 1.00006 1.10025 1.22012 0.660073 1.66022C0.220061 2.10028 0 2.63027 0 3.25001V9.7501C0 10.3698 0.220061 10.8999 0.660101 11.3398C1.10028 11.7799 1.63026 12.0001 2.25 12.0001H8.75012C9.36983 12.0001 9.89987 11.7799 10.34 11.3398C10.7801 10.8999 11.0002 10.3698 11.0002 9.7501V7.25018C11.0002 7.17715 10.9768 7.11722 10.9298 7.0704C10.8829 7.02339 10.823 6.99999 10.7501 6.99999Z" fill="white"/>
<path d="M13.8517 0.148422C13.7527 0.0494467 13.6353 0 13.5 0H9.50002C9.36462 0 9.24737 0.0494467 9.14848 0.148422C9.0495 0.247343 8.99994 0.364543 8.99994 0.499967C8.99994 0.635391 9.0495 0.752618 9.14848 0.851594L10.5234 2.22658L5.42971 7.32041C5.37756 7.37248 5.35156 7.43241 5.35156 7.5C5.35156 7.56783 5.37764 7.62773 5.42971 7.67981L6.32036 8.57034C6.37243 8.62241 6.43236 8.64838 6.50006 8.64838C6.56775 8.64838 6.62771 8.62244 6.67975 8.57034L11.7735 3.47659L13.1486 4.85158C13.2475 4.95055 13.3647 5.00005 13.5001 5.00005C13.6355 5.00005 13.7528 4.95055 13.8518 4.85158C13.9507 4.75263 14.0002 4.63546 14.0002 4.50003V0.499967C14.0002 0.364461 13.9505 0.247343 13.8517 0.148422Z" fill="white"/>
</svg>
