<svg width="13" height="12" viewBox="0 0 13 12" fill="none" xmlns="http://www.w3.org/2000/svg">
<path d="M9.98216 6.49987H9.51783C9.45001 6.49987 9.39437 6.52159 9.35107 6.56525C9.30742 6.60864 9.28569 6.66426 9.28569 6.732V9.05341C9.28569 9.37262 9.17211 9.64582 8.94483 9.87316C8.71754 10.1004 8.44424 10.214 8.12503 10.214H2.08924C1.77005 10.214 1.49678 10.1004 1.26944 9.87316C1.04216 9.64585 0.928526 9.37265 0.928526 9.05341V3.0177C0.928526 2.69851 1.04213 2.42533 1.26944 2.19802C1.49678 1.97069 1.77005 1.85708 2.08924 1.85708H7.19632C7.26414 1.85708 7.31979 1.83526 7.36326 1.79178C7.40674 1.74826 7.42846 1.69269 7.42846 1.62492V1.16057C7.42846 1.09293 7.40674 1.03726 7.36326 0.993809C7.31979 0.950283 7.26414 0.928558 7.19632 0.928558H2.08924C1.51377 0.928558 1.02165 1.1329 0.612919 1.54155C0.20434 1.95018 0 2.44231 0 3.01777V9.05351C0 9.62895 0.20434 10.1212 0.612945 10.5297C1.02168 10.9383 1.5138 11.1428 2.08927 11.1428H8.12503C8.70047 11.1428 9.19264 10.9383 9.60132 10.5297C10.01 10.1212 10.2144 9.62898 10.2144 9.05351V6.73218C10.2144 6.66437 10.1926 6.60872 10.149 6.56525C10.1054 6.52159 10.0498 6.49987 9.98216 6.49987Z" fill="black"/>
<path d="M12.8621 0.137819C12.7702 0.0459143 12.6612 0 12.5356 0H8.82134C8.69561 0 8.58674 0.0459143 8.49491 0.137819C8.403 0.229673 8.35699 0.338501 8.35699 0.46425C8.35699 0.59 8.403 0.698853 8.49491 0.790758L9.77164 2.06752L5.04181 6.79745C4.99338 6.84581 4.96924 6.90145 4.96924 6.96421C4.96924 7.0272 4.99345 7.08282 5.04181 7.13118L5.86882 7.95809C5.91718 8.00644 5.97282 8.03056 6.03569 8.03056C6.09855 8.03056 6.15422 8.00647 6.20255 7.95809L10.9324 3.22823L12.2092 4.50499C12.3011 4.59689 12.4099 4.64286 12.5357 4.64286C12.6614 4.64286 12.7703 4.59689 12.8622 4.50499C12.9541 4.41311 13 4.30431 13 4.17856V0.46425C13 0.338424 12.9539 0.229673 12.8621 0.137819Z" fill="black"/>
</svg>
