<svg width="22" height="23" viewBox="0 0 22 23" fill="none" xmlns="http://www.w3.org/2000/svg">
<path d="M21.419 0H0.579999C0.424847 0 0.27605 0.0616338 0.166341 0.171343C0.0566327 0.281051 -0.00500107 0.429848 -0.00500107 0.585C-0.00500107 0.740152 0.0566327 0.888949 0.166341 0.998657C0.27605 1.10837 0.424847 1.17 0.579999 1.17H1.836V22.247C1.836 22.461 1.952 22.661 2.141 22.763C2.23336 22.8136 2.33791 22.8377 2.44309 22.8325C2.54827 22.8274 2.64999 22.7933 2.737 22.734L5.262 21.043L7.796 22.739C7.99 22.871 8.246 22.871 8.44 22.739L10.965 21.048L13.499 22.744C13.693 22.875 13.95 22.875 14.144 22.744L16.669 21.052L19.203 22.749C19.2907 22.8067 19.3922 22.8398 19.497 22.8449C19.6019 22.85 19.7061 22.8269 19.799 22.778C19.8916 22.7272 19.9688 22.6523 20.0224 22.5614C20.0761 22.4704 20.1043 22.3666 20.104 22.261L20.094 1.184H21.418C21.738 1.184 21.999 0.921 21.999 0.6C21.999 0.278 21.737 0 21.418 0L21.419 0ZM18.947 21.155L16.994 19.848C16.8989 19.7837 16.7868 19.7494 16.672 19.7494C16.5572 19.7494 16.4451 19.7837 16.35 19.848L13.825 21.545L11.291 19.848C11.1958 19.7835 11.0835 19.749 10.9685 19.749C10.8535 19.749 10.7412 19.7835 10.646 19.848L8.122 21.54L5.587 19.848C5.49191 19.7837 5.37977 19.7494 5.265 19.7494C5.15023 19.7494 5.03808 19.7837 4.943 19.848L3 21.15V1.165H18.942L18.947 21.155Z" fill="#BC450D"/>
<path d="M5.687 9.462H12.082C12.418 9.462 12.692 9.272 12.692 9.038C12.692 8.806 12.418 8.615 12.082 8.615H5.687C5.352 8.615 5.077 8.805 5.077 9.038C5.077 9.271 5.347 9.462 5.687 9.462ZM5.678 12H10.398C10.729 12 11 11.81 11 11.577C11 11.344 10.73 11.154 10.399 11.154H5.679C5.348 11.154 5.077 11.344 5.077 11.577C5.077 11.81 5.343 12 5.678 12ZM14.934 9.462H16.374C16.676 9.462 16.924 9.272 16.924 9.038C16.924 8.806 16.676 8.615 16.374 8.615H14.934C14.632 8.615 14.384 8.805 14.384 9.038C14.384 9.271 14.627 9.462 14.934 9.462ZM14.934 12H16.374C16.676 12 16.924 11.81 16.924 11.577C16.924 11.344 16.676 11.154 16.374 11.154H14.934C14.632 11.154 14.384 11.344 14.384 11.577C14.384 11.81 14.627 12 14.934 12ZM5.687 5.23H12.082C12.418 5.23 12.692 5.04 12.692 4.808C12.692 4.575 12.418 4.385 12.082 4.385H5.687C5.352 4.385 5.077 4.575 5.077 4.808C5.077 5.04 5.347 5.231 5.687 5.231V5.23ZM5.678 7.77H10.398C10.729 7.77 11 7.579 11 7.346C11 7.113 10.73 6.923 10.399 6.923H5.679C5.348 6.923 5.077 7.113 5.077 7.346C5.077 7.579 5.343 7.769 5.678 7.769V7.77ZM14.934 5.23H16.374C16.676 5.23 16.924 5.04 16.924 4.808C16.924 4.575 16.676 4.385 16.374 4.385H14.934C14.632 4.385 14.384 4.575 14.384 4.808C14.384 5.04 14.627 5.231 14.934 5.231V5.23ZM14.934 7.77H16.374C16.676 7.77 16.924 7.579 16.924 7.346C16.924 7.113 16.676 6.923 16.374 6.923H14.934C14.632 6.923 14.384 7.113 14.384 7.346C14.384 7.579 14.627 7.769 14.934 7.769V7.77ZM5.687 14.538H12.082C12.418 14.538 12.692 14.348 12.692 14.115C12.692 13.883 12.418 13.692 12.082 13.692H5.687C5.352 13.692 5.077 13.882 5.077 14.115C5.077 14.348 5.347 14.538 5.687 14.538ZM5.678 17.077H10.398C10.729 17.077 11 16.887 11 16.654C11 16.421 10.73 16.231 10.399 16.231H5.679C5.348 16.231 5.077 16.421 5.077 16.654C5.077 16.887 5.343 17.077 5.678 17.077ZM14.934 14.538H16.374C16.676 14.538 16.924 14.348 16.924 14.115C16.924 13.883 16.676 13.692 16.374 13.692H14.934C14.632 13.692 14.384 13.882 14.384 14.115C14.384 14.348 14.627 14.538 14.934 14.538ZM14.934 17.077H16.374C16.676 17.077 16.924 16.887 16.924 16.654C16.924 16.421 16.676 16.231 16.374 16.231H14.934C14.632 16.231 14.384 16.421 14.384 16.654C14.384 16.887 14.627 17.077 14.934 17.077Z" fill="#BC450D"/>
</svg>
