<svg width="23" height="23" viewBox="0 0 23 23" fill="none" xmlns="http://www.w3.org/2000/svg">
<path d="M13.074 21.028C12.921 21.075 12.764 21.118 12.61 21.153C12.205 21.247 11.938 21.733 12.013 22.239C12.05 22.487 12.163 22.695 12.316 22.829C12.3907 22.8988 12.4812 22.9494 12.5798 22.9764C12.6785 23.0034 12.7822 23.006 12.882 22.984C13.066 22.941 13.252 22.891 13.434 22.834C13.834 22.71 14.077 22.204 13.978 21.706C13.878 21.207 13.474 20.904 13.074 21.028ZM20.26 8.484C20.3256 8.64338 20.4424 8.77637 20.592 8.862C20.816 8.995 21.108 9.04 21.388 8.962C21.856 8.831 22.109 8.405 21.955 8.01C21.884 7.83 21.805 7.65 21.722 7.474C21.539 7.088 21.02 6.9 20.562 7.054C20.104 7.208 19.881 7.647 20.064 8.033C20.134 8.181 20.2 8.333 20.259 8.483L20.26 8.484ZM16.804 20.14C16.6677 20.2387 16.5283 20.3331 16.386 20.423C16.016 20.656 15.891 21.173 16.103 21.577C16.161 21.687 16.238 21.777 16.327 21.846C16.565 22.029 16.887 22.056 17.157 21.886C17.3262 21.7793 17.4919 21.6672 17.654 21.55C18.009 21.293 18.107 20.769 17.872 20.38C17.637 19.99 17.159 19.883 16.804 20.14ZM22.99 10.712C22.969 10.303 22.506 9.985 21.956 10.001C21.407 10.017 20.979 10.361 21.001 10.771C21.009 10.927 21.011 11.086 21.006 11.242C20.999 11.499 21.167 11.727 21.429 11.865C21.585 11.947 21.775 11.996 21.979 12C22.529 12.009 22.985 11.684 22.997 11.275C23.0027 11.0873 23.0007 10.8995 22.991 10.712H22.99ZM20.672 17.157C20.4965 17.0314 20.2796 16.9776 20.0658 17.0068C19.8519 17.036 19.6574 17.1459 19.522 17.314C19.4174 17.4476 19.3086 17.578 19.196 17.705C19.122 17.7871 19.0667 17.8843 19.034 17.9898C19.0012 18.0954 18.9918 18.2068 19.0063 18.3164C19.0209 18.4259 19.0591 18.531 19.1182 18.6243C19.1774 18.7177 19.2561 18.7971 19.349 18.857C19.5175 18.9698 19.7209 19.0184 19.9222 18.994C20.1235 18.9696 20.3093 18.8738 20.446 18.724C20.58 18.573 20.711 18.416 20.836 18.257C20.9004 18.1752 20.9475 18.081 20.9742 17.9804C21.001 17.8797 21.0068 17.7746 20.9915 17.6716C20.9761 17.5686 20.9398 17.4698 20.8849 17.3813C20.83 17.2928 20.7575 17.2165 20.672 17.157ZM22.371 14.035C21.898 13.91 21.395 14.131 21.246 14.527C21.19 14.679 21.126 14.831 21.059 14.98C20.91 15.308 21.053 15.669 21.38 15.862C21.44 15.898 21.506 15.928 21.578 15.95C22.041 16.098 22.559 15.904 22.736 15.516C22.816 15.338 22.891 15.157 22.959 14.977C23.107 14.581 22.844 14.159 22.371 14.035ZM9.775 21.152C8.9557 21.0038 8.1595 20.7483 7.407 20.392L7.381 20.378C7.20341 20.2938 7.02834 20.2045 6.856 20.11L6.853 20.109C6.53655 19.9327 6.23008 19.7391 5.935 19.529C1.592 16.444 0.546996 10.37 3.607 5.988C4.25116 5.06293 5.05264 4.25806 5.975 3.61L6.008 3.587C9.171 1.39 13.466 1.24 16.824 3.5L16.103 4.551C15.903 4.844 16.026 5.057 16.377 5.025L19.51 4.742C19.5897 4.73782 19.6674 4.71534 19.7371 4.67628C19.8067 4.63723 19.8665 4.58266 19.9116 4.5168C19.9568 4.45095 19.9862 4.37558 19.9975 4.29653C20.0089 4.21749 20.0018 4.1369 19.977 4.061L19.136 1.003C19.042 0.660004 18.801 0.619004 18.6 0.912004L17.877 1.965C15.433 0.299301 12.4342 -0.343892 9.522 0.173004C9.226 0.225004 8.935 0.288004 8.648 0.361004L8.642 0.362004L8.609 0.372004C6.07671 1.0269 3.84732 2.53412 2.296 4.64C2.282 4.656 2.269 4.671 2.256 4.689C2.11682 4.87802 1.98376 5.07145 1.857 5.269C1.847 5.284 1.84 5.299 1.831 5.314C0.537537 7.3287 -0.0984101 9.69533 0.0109959 12.087V12.111C0.0219959 12.344 0.0409959 12.581 0.0659959 12.814C0.0659959 12.829 0.0699959 12.844 0.0729959 12.859C0.350601 15.4825 1.51965 17.9314 3.385 19.797L3.396 19.809L3.4 19.812C3.852 20.262 4.343 20.677 4.871 21.052C6.23515 22.0272 7.79875 22.6874 9.449 22.985C9.56879 23.0063 9.6916 23.0037 9.81039 22.9774C9.92918 22.9511 10.0416 22.9015 10.1412 22.8317C10.2408 22.7618 10.3256 22.673 10.3908 22.5702C10.456 22.4675 10.5002 22.3529 10.521 22.233C10.5651 21.9908 10.5113 21.7409 10.3714 21.5383C10.2316 21.3357 10.0171 21.1967 9.775 21.152Z" fill="#BC450D"/>
<path d="M10.757 4C10.5559 4.00053 10.3632 4.08087 10.2212 4.22337C10.0793 4.36586 9.99973 4.55887 10 4.76V12.334L16.896 15.915C16.9843 15.9607 17.0809 15.9886 17.18 15.9969C17.2791 16.0053 17.3789 15.994 17.4737 15.9637C17.5684 15.9334 17.6563 15.8847 17.7322 15.8204C17.8081 15.7561 17.8706 15.6775 17.916 15.589C18.0081 15.41 18.0256 15.2018 17.9647 15.01C17.9038 14.8181 17.7694 14.6582 17.591 14.565L11.513 11.408V4.76C11.513 4.34 11.175 4 10.757 4Z" fill="#BC450D"/>
</svg>
