<svg width="38" height="35" viewBox="0 0 38 35" fill="none" xmlns="http://www.w3.org/2000/svg">
<rect width="37.3333" height="35" rx="2" fill="#BC450D"/>
<mask id="path-2-inside-1" fill="white">
<path d="M9.33325 14.0139C9.33325 13.5934 9.67415 13.2525 10.0947 13.2525H26.0718C26.4924 13.2525 26.8333 13.5934 26.8333 14.0139V23.7982C26.8333 25.4802 25.4697 26.8438 23.7876 26.8438H12.3789C10.6969 26.8438 9.33325 25.4802 9.33325 23.7982V14.0139Z"/>
</mask>
<path d="M9.33325 14.0139C9.33325 13.5934 9.67415 13.2525 10.0947 13.2525H26.0718C26.4924 13.2525 26.8333 13.5934 26.8333 14.0139V23.7982C26.8333 25.4802 25.4697 26.8438 23.7876 26.8438H12.3789C10.6969 26.8438 9.33325 25.4802 9.33325 23.7982V14.0139Z" stroke="white" stroke-width="2.28426" mask="url(#path-2-inside-1)"/>
<path d="M14.3079 16.1839C14.3079 11.3425 14.3079 16.6726 14.3079 11.8311C14.3079 6.98969 21.8586 6.90084 21.8586 11.8311C21.8586 16.7614 21.8586 16.1839 21.8586 16.1839" stroke="white" stroke-width="1.14213"/>
</svg>
